<?xml version="1.0" encoding="UTF-8" standalone="no"?>
<!DOCTYPE svg PUBLIC "-//W3C//DTD SVG 1.1//EN"
 "http://www.w3.org/Graphics/SVG/1.1/DTD/svg11.dtd">
<!-- Generated by graphviz version 2.47.1 (0)
 -->
<!-- Pages: 1 -->
<svg width="289pt" height="692pt"
 viewBox="0.00 0.00 289.00 692.00" xmlns="http://www.w3.org/2000/svg" xmlns:xlink="http://www.w3.org/1999/xlink">
<g id="graph0" class="graph" transform="scale(1 1) rotate(0) translate(4 688)">
<polygon fill="white" stroke="transparent" points="-4,4 -4,-688 285,-688 285,4 -4,4"/>
<!-- Entry -->
<g id="node1" class="node">
<title>Entry</title>
<path fill="none" stroke="black" d="M70,-684C70,-684 40,-684 40,-684 34,-684 28,-678 28,-672 28,-672 28,-660 28,-660 28,-654 34,-648 40,-648 40,-648 70,-648 70,-648 76,-648 82,-654 82,-660 82,-660 82,-672 82,-672 82,-678 76,-684 70,-684"/>
<text text-anchor="middle" x="55" y="-662.3" font-family="Times,serif" font-size="14.00">Entry</text>
</g>
<!-- Exit -->
<g id="node2" class="node">
<title>Exit</title>
<path fill="none" stroke="black" d="M42,-36C42,-36 12,-36 12,-36 6,-36 0,-30 0,-24 0,-24 0,-12 0,-12 0,-6 6,0 12,0 12,0 42,0 42,0 48,0 54,-6 54,-12 54,-12 54,-24 54,-24 54,-30 48,-36 42,-36"/>
<text text-anchor="middle" x="27" y="-14.3" font-family="Times,serif" font-size="14.00">Exit</text>
</g>
<!-- Entry&#45;&gt;Exit -->
<g id="edge18" class="edge">
<title>Entry&#45;&gt;Exit</title>
<path fill="none" stroke="black" d="M50.95,-647.92C42.77,-611.79 25,-524.91 25,-451 25,-451 25,-451 25,-161 25,-120.99 25.8,-74.65 26.39,-46.08"/>
<polygon fill="black" stroke="black" points="29.89,-46.12 26.6,-36.05 22.89,-45.97 29.89,-46.12"/>
</g>
<!-- 1 -->
<g id="node3" class="node">
<title>1</title>
<ellipse fill="none" stroke="black" cx="127" cy="-666" rx="27" ry="18"/>
<text text-anchor="middle" x="127" y="-662.3" font-family="Times,serif" font-size="14.00">1</text>
</g>
<!-- Entry&#45;&gt;1 -->
<g id="edge1" class="edge">
<title>Entry&#45;&gt;1</title>
<path fill="none" stroke="black" d="M82.28,-666C84.74,-666 87.19,-666 89.65,-666"/>
<polygon fill="black" stroke="black" points="89.75,-669.5 99.75,-666 89.75,-662.5 89.75,-669.5"/>
</g>
<!-- 12 -->
<g id="node4" class="node">
<title>12</title>
<ellipse fill="none" stroke="black" cx="99" cy="-18" rx="27" ry="18"/>
<text text-anchor="middle" x="99" y="-14.3" font-family="Times,serif" font-size="14.00">12</text>
</g>
<!-- Exit&#45;&gt;12 -->
<g id="edge17" class="edge">
<title>Exit&#45;&gt;12</title>
<path fill="none" stroke="black" d="M64.38,-18C66.84,-18 69.29,-18 71.75,-18"/>
<polygon fill="black" stroke="black" points="64.28,-14.5 54.28,-18 64.28,-21.5 64.28,-14.5"/>
</g>
<!-- 2 -->
<g id="node5" class="node">
<title>2</title>
<ellipse fill="none" stroke="black" cx="127" cy="-594" rx="27" ry="18"/>
<text text-anchor="middle" x="127" y="-590.3" font-family="Times,serif" font-size="14.00">2</text>
</g>
<!-- 1&#45;&gt;2 -->
<g id="edge2" class="edge">
<title>1&#45;&gt;2</title>
<path fill="none" stroke="black" d="M127,-647.7C127,-639.98 127,-630.71 127,-622.11"/>
<polygon fill="black" stroke="black" points="130.5,-622.1 127,-612.1 123.5,-622.1 130.5,-622.1"/>
</g>
<!-- 12&#45;&gt;2 -->
<g id="edge16" class="edge">
<title>12&#45;&gt;2</title>
<path fill="none" stroke="black" d="M95.44,-35.96C90.2,-62.5 81,-115.52 81,-161 81,-451 81,-451 81,-451 81,-493.65 100.02,-540.16 113.59,-567.93"/>
<polygon fill="black" stroke="black" points="110.51,-569.58 118.13,-576.94 116.76,-566.43 110.51,-569.58"/>
</g>
<!-- 7 -->
<g id="node6" class="node">
<title>7</title>
<ellipse fill="none" stroke="black" cx="136" cy="-378" rx="27" ry="18"/>
<text text-anchor="middle" x="136" y="-374.3" font-family="Times,serif" font-size="14.00">7</text>
</g>
<!-- 2&#45;&gt;7 -->
<g id="edge3" class="edge">
<title>2&#45;&gt;7</title>
<path fill="none" stroke="black" d="M127.72,-575.85C129.28,-538.83 132.96,-451.18 134.85,-406.39"/>
<polygon fill="black" stroke="black" points="138.35,-406.37 135.28,-396.23 131.36,-406.08 138.35,-406.37"/>
</g>
<!-- 3 -->
<g id="node11" class="node">
<title>3</title>
<ellipse fill="none" stroke="black" cx="182" cy="-522" rx="27" ry="18"/>
<text text-anchor="middle" x="182" y="-518.3" font-family="Times,serif" font-size="14.00">3</text>
</g>
<!-- 2&#45;&gt;3 -->
<g id="edge9" class="edge">
<title>2&#45;&gt;3</title>
<path fill="none" stroke="black" d="M138.93,-577.81C146.21,-568.55 155.66,-556.52 163.85,-546.09"/>
<polygon fill="black" stroke="black" points="166.66,-548.18 170.09,-538.16 161.16,-543.86 166.66,-548.18"/>
</g>
<!-- 8 -->
<g id="node7" class="node">
<title>8</title>
<ellipse fill="none" stroke="black" cx="163" cy="-306" rx="27" ry="18"/>
<text text-anchor="middle" x="163" y="-302.3" font-family="Times,serif" font-size="14.00">8</text>
</g>
<!-- 7&#45;&gt;8 -->
<g id="edge4" class="edge">
<title>7&#45;&gt;8</title>
<path fill="none" stroke="black" d="M142.4,-360.41C145.51,-352.34 149.33,-342.43 152.83,-333.35"/>
<polygon fill="black" stroke="black" points="156.13,-334.55 156.46,-323.96 149.6,-332.03 156.13,-334.55"/>
</g>
<!-- 9 -->
<g id="node8" class="node">
<title>9</title>
<ellipse fill="none" stroke="black" cx="163" cy="-234" rx="27" ry="18"/>
<text text-anchor="middle" x="163" y="-230.3" font-family="Times,serif" font-size="14.00">9</text>
</g>
<!-- 8&#45;&gt;9 -->
<g id="edge5" class="edge">
<title>8&#45;&gt;9</title>
<path fill="none" stroke="black" d="M163,-287.7C163,-279.98 163,-270.71 163,-262.11"/>
<polygon fill="black" stroke="black" points="166.5,-262.1 163,-252.1 159.5,-262.1 166.5,-262.1"/>
</g>
<!-- 10 -->
<g id="node9" class="node">
<title>10</title>
<ellipse fill="none" stroke="black" cx="136" cy="-162" rx="27" ry="18"/>
<text text-anchor="middle" x="136" y="-158.3" font-family="Times,serif" font-size="14.00">10</text>
</g>
<!-- 9&#45;&gt;10 -->
<g id="edge6" class="edge">
<title>9&#45;&gt;10</title>
<path fill="none" stroke="black" d="M156.6,-216.41C153.49,-208.34 149.67,-198.43 146.17,-189.35"/>
<polygon fill="black" stroke="black" points="149.4,-188.03 142.54,-179.96 142.87,-190.55 149.4,-188.03"/>
</g>
<!-- 11 -->
<g id="node10" class="node">
<title>11</title>
<ellipse fill="none" stroke="black" cx="136" cy="-90" rx="27" ry="18"/>
<text text-anchor="middle" x="136" y="-86.3" font-family="Times,serif" font-size="14.00">11</text>
</g>
<!-- 10&#45;&gt;11 -->
<g id="edge7" class="edge">
<title>10&#45;&gt;11</title>
<path fill="none" stroke="black" d="M136,-143.7C136,-135.98 136,-126.71 136,-118.11"/>
<polygon fill="black" stroke="black" points="139.5,-118.1 136,-108.1 132.5,-118.1 139.5,-118.1"/>
</g>
<!-- 11&#45;&gt;12 -->
<g id="edge8" class="edge">
<title>11&#45;&gt;12</title>
<path fill="none" stroke="black" d="M127.42,-72.76C122.94,-64.28 117.35,-53.71 112.32,-44.2"/>
<polygon fill="black" stroke="black" points="115.3,-42.35 107.54,-35.15 109.11,-45.62 115.3,-42.35"/>
</g>
<!-- 11&#45;&gt;9 -->
<g id="edge15" class="edge">
<title>11&#45;&gt;9</title>
<path fill="none" stroke="black" d="M149.75,-105.93C157.96,-115.9 167.62,-129.75 172,-144 178.26,-164.35 175.23,-188.43 171.07,-206.41"/>
<polygon fill="black" stroke="black" points="167.65,-205.65 168.55,-216.21 174.43,-207.4 167.65,-205.65"/>
</g>
<!-- 4 -->
<g id="node12" class="node">
<title>4</title>
<ellipse fill="none" stroke="black" cx="182" cy="-450" rx="27" ry="18"/>
<text text-anchor="middle" x="182" y="-446.3" font-family="Times,serif" font-size="14.00">4</text>
</g>
<!-- 3&#45;&gt;4 -->
<g id="edge10" class="edge">
<title>3&#45;&gt;4</title>
<path fill="none" stroke="black" d="M182,-503.7C182,-495.98 182,-486.71 182,-478.11"/>
<polygon fill="black" stroke="black" points="185.5,-478.1 182,-468.1 178.5,-478.1 185.5,-478.1"/>
</g>
<!-- 5 -->
<g id="node14" class="node">
<title>5</title>
<ellipse fill="none" stroke="black" cx="254" cy="-450" rx="27" ry="18"/>
<text text-anchor="middle" x="254" y="-446.3" font-family="Times,serif" font-size="14.00">5</text>
</g>
<!-- 3&#45;&gt;5 -->
<g id="edge13" class="edge">
<title>3&#45;&gt;5</title>
<path fill="none" stroke="black" d="M196.57,-506.83C206.75,-496.94 220.52,-483.55 232.03,-472.36"/>
<polygon fill="black" stroke="black" points="234.47,-474.87 239.2,-465.38 229.59,-469.85 234.47,-474.87"/>
</g>
<!-- 6 -->
<g id="node13" class="node">
<title>6</title>
<ellipse fill="none" stroke="black" cx="208" cy="-378" rx="27" ry="18"/>
<text text-anchor="middle" x="208" y="-374.3" font-family="Times,serif" font-size="14.00">6</text>
</g>
<!-- 4&#45;&gt;6 -->
<g id="edge11" class="edge">
<title>4&#45;&gt;6</title>
<path fill="none" stroke="black" d="M188.16,-432.41C191.16,-424.34 194.84,-414.43 198.21,-405.35"/>
<polygon fill="black" stroke="black" points="201.5,-406.55 201.7,-395.96 194.94,-404.11 201.5,-406.55"/>
</g>
<!-- 6&#45;&gt;8 -->
<g id="edge12" class="edge">
<title>6&#45;&gt;8</title>
<path fill="none" stroke="black" d="M197.79,-361.12C192.15,-352.34 185.03,-341.26 178.7,-331.42"/>
<polygon fill="black" stroke="black" points="181.52,-329.34 173.17,-322.82 175.63,-333.13 181.52,-329.34"/>
</g>
<!-- 5&#45;&gt;6 -->
<g id="edge14" class="edge">
<title>5&#45;&gt;6</title>
<path fill="none" stroke="black" d="M243.56,-433.12C237.8,-424.34 230.52,-413.26 224.04,-403.42"/>
<polygon fill="black" stroke="black" points="226.81,-401.26 218.4,-394.82 220.96,-405.1 226.81,-401.26"/>
</g>
</g>
</svg>
