<?xml version="1.0" encoding="UTF-8" standalone="no"?>
<!DOCTYPE svg PUBLIC "-//W3C//DTD SVG 1.1//EN"
 "http://www.w3.org/Graphics/SVG/1.1/DTD/svg11.dtd">
<!-- Generated by graphviz version 2.47.1 (0)
 -->
<!-- Pages: 1 -->
<svg width="470pt" height="582pt"
 viewBox="0.00 0.00 470.02 582.44" xmlns="http://www.w3.org/2000/svg" xmlns:xlink="http://www.w3.org/1999/xlink">
<g id="graph0" class="graph" transform="scale(1 1) rotate(0) translate(4 578.44)">
<polygon fill="white" stroke="transparent" points="-4,4 -4,-578.44 466.02,-578.44 466.02,4 -4,4"/>
<!-- Entry -->
<g id="node1" class="node">
<title>Entry</title>
<ellipse fill="none" stroke="black" cx="160.65" cy="-556.44" rx="44.39" ry="18"/>
<text text-anchor="middle" x="160.65" y="-552.74" font-family="Times,serif" font-size="14.00">Entry[&#45;|&#45;]</text>
</g>
<!-- Exit -->
<g id="node2" class="node">
<title>Exit</title>
<ellipse fill="none" stroke="black" cx="107.65" cy="-475.57" rx="44.6" ry="26.74"/>
<text text-anchor="middle" x="107.65" y="-479.37" font-family="Times,serif" font-size="14.00">(&#45;)</text>
<text text-anchor="middle" x="107.65" y="-464.37" font-family="Times,serif" font-size="14.00">|Exit[&#45;|&#45;]</text>
</g>
<!-- Entry&#45;&gt;Exit -->
<g id="edge13" class="edge">
<title>Entry&#45;&gt;Exit</title>
<path fill="none" stroke="black" d="M149.41,-538.71C143.62,-530.09 136.35,-519.28 129.51,-509.1"/>
<polygon fill="black" stroke="black" points="132.38,-507.1 123.9,-500.76 126.57,-511.01 132.38,-507.1"/>
</g>
<!-- 1 -->
<g id="node3" class="node">
<title>1</title>
<ellipse fill="none" stroke="black" cx="213.65" cy="-475.57" rx="43.68" ry="26.74"/>
<text text-anchor="middle" x="213.65" y="-479.37" font-family="Times,serif" font-size="14.00">(&#45;)</text>
<text text-anchor="middle" x="213.65" y="-464.37" font-family="Times,serif" font-size="14.00">1[&#45;|Exit]</text>
</g>
<!-- Entry&#45;&gt;1 -->
<g id="edge1" class="edge">
<title>Entry&#45;&gt;1</title>
<path fill="none" stroke="black" d="M171.89,-538.71C177.68,-530.09 184.95,-519.28 191.79,-509.1"/>
<polygon fill="black" stroke="black" points="194.72,-511.01 197.4,-500.76 188.91,-507.1 194.72,-511.01"/>
</g>
<!-- 2 -->
<g id="node4" class="node">
<title>2</title>
<ellipse fill="none" stroke="black" cx="213.65" cy="-385.83" rx="51.74" ry="26.74"/>
<text text-anchor="middle" x="213.65" y="-389.63" font-family="Times,serif" font-size="14.00">(Exit)</text>
<text text-anchor="middle" x="213.65" y="-374.63" font-family="Times,serif" font-size="14.00">2[&#45;|Exit,2]</text>
</g>
<!-- 1&#45;&gt;2 -->
<g id="edge2" class="edge">
<title>1&#45;&gt;2</title>
<path fill="none" stroke="black" d="M213.65,-448.25C213.65,-440.28 213.65,-431.39 213.65,-422.9"/>
<polygon fill="black" stroke="black" points="217.15,-422.83 213.65,-412.83 210.15,-422.83 217.15,-422.83"/>
</g>
<!-- 3 -->
<g id="node5" class="node">
<title>3</title>
<ellipse fill="none" stroke="black" cx="125.65" cy="-296.09" rx="33.47" ry="26.74"/>
<text text-anchor="middle" x="125.65" y="-299.89" font-family="Times,serif" font-size="14.00">(&#45;)</text>
<text text-anchor="middle" x="125.65" y="-284.89" font-family="Times,serif" font-size="14.00">3[&#45;|8]</text>
</g>
<!-- 2&#45;&gt;3 -->
<g id="edge3" class="edge">
<title>2&#45;&gt;3</title>
<path fill="none" stroke="black" d="M190.53,-361.78C179.14,-350.43 165.33,-336.65 153.38,-324.74"/>
<polygon fill="black" stroke="black" points="155.77,-322.18 146.21,-317.6 150.82,-327.13 155.77,-322.18"/>
</g>
<!-- 7 -->
<g id="node9" class="node">
<title>7</title>
<ellipse fill="none" stroke="black" cx="213.65" cy="-296.09" rx="34.8" ry="26.74"/>
<text text-anchor="middle" x="213.65" y="-299.89" font-family="Times,serif" font-size="14.00">(&#45;)</text>
<text text-anchor="middle" x="213.65" y="-284.89" font-family="Times,serif" font-size="14.00">7[8|8]</text>
</g>
<!-- 2&#45;&gt;7 -->
<g id="edge7" class="edge">
<title>2&#45;&gt;7</title>
<path fill="none" stroke="black" d="M213.65,-358.51C213.65,-350.54 213.65,-341.65 213.65,-333.16"/>
<polygon fill="black" stroke="black" points="217.15,-333.09 213.65,-323.09 210.15,-333.09 217.15,-333.09"/>
</g>
<!-- 8 -->
<g id="node10" class="node">
<title>8</title>
<ellipse fill="none" stroke="black" cx="318.65" cy="-296.09" rx="51.74" ry="26.74"/>
<text text-anchor="middle" x="318.65" y="-299.89" font-family="Times,serif" font-size="14.00">(Exit,2)</text>
<text text-anchor="middle" x="318.65" y="-284.89" font-family="Times,serif" font-size="14.00">8[&#45;|Exit,2]</text>
</g>
<!-- 2&#45;&gt;8 -->
<g id="edge8" class="edge">
<title>2&#45;&gt;8</title>
<path fill="none" stroke="black" d="M240.14,-362.69C253.57,-351.47 270.04,-337.71 284.42,-325.69"/>
<polygon fill="black" stroke="black" points="286.73,-328.32 292.16,-319.22 282.24,-322.95 286.73,-328.32"/>
</g>
<!-- 4 -->
<g id="node6" class="node">
<title>4</title>
<ellipse fill="none" stroke="black" cx="34.65" cy="-206.35" rx="34.8" ry="26.74"/>
<text text-anchor="middle" x="34.65" y="-210.15" font-family="Times,serif" font-size="14.00">(&#45;)</text>
<text text-anchor="middle" x="34.65" y="-195.15" font-family="Times,serif" font-size="14.00">4[6|6]</text>
</g>
<!-- 3&#45;&gt;4 -->
<g id="edge4" class="edge">
<title>3&#45;&gt;4</title>
<path fill="none" stroke="black" d="M104.54,-274.74C92.34,-262.98 76.82,-248.01 63.5,-235.17"/>
<polygon fill="black" stroke="black" points="65.58,-232.32 55.95,-227.89 60.72,-237.35 65.58,-232.32"/>
</g>
<!-- 5 -->
<g id="node7" class="node">
<title>5</title>
<ellipse fill="none" stroke="black" cx="121.65" cy="-206.35" rx="34.8" ry="26.74"/>
<text text-anchor="middle" x="121.65" y="-210.15" font-family="Times,serif" font-size="14.00">(&#45;)</text>
<text text-anchor="middle" x="121.65" y="-195.15" font-family="Times,serif" font-size="14.00">5[6|6]</text>
</g>
<!-- 3&#45;&gt;5 -->
<g id="edge5" class="edge">
<title>3&#45;&gt;5</title>
<path fill="none" stroke="black" d="M124.45,-268.77C124.08,-260.8 123.68,-251.91 123.29,-243.42"/>
<polygon fill="black" stroke="black" points="126.79,-243.18 122.83,-233.35 119.79,-243.5 126.79,-243.18"/>
</g>
<!-- 6 -->
<g id="node8" class="node">
<title>6</title>
<ellipse fill="none" stroke="black" cx="208.65" cy="-206.35" rx="34.8" ry="26.74"/>
<text text-anchor="middle" x="208.65" y="-210.15" font-family="Times,serif" font-size="14.00">(8)</text>
<text text-anchor="middle" x="208.65" y="-195.15" font-family="Times,serif" font-size="14.00">6[8|8]</text>
</g>
<!-- 3&#45;&gt;6 -->
<g id="edge6" class="edge">
<title>3&#45;&gt;6</title>
<path fill="none" stroke="black" d="M145.32,-274.3C156.12,-262.88 169.67,-248.55 181.47,-236.08"/>
<polygon fill="black" stroke="black" points="184.21,-238.27 188.54,-228.6 179.13,-233.46 184.21,-238.27"/>
</g>
<!-- 9 -->
<g id="node11" class="node">
<title>9</title>
<ellipse fill="none" stroke="black" cx="319.65" cy="-206.35" rx="58.88" ry="26.74"/>
<text text-anchor="middle" x="319.65" y="-210.15" font-family="Times,serif" font-size="14.00">(Exit,2)</text>
<text text-anchor="middle" x="319.65" y="-195.15" font-family="Times,serif" font-size="14.00">9[&#45;|Exit,2,9]</text>
</g>
<!-- 8&#45;&gt;9 -->
<g id="edge9" class="edge">
<title>8&#45;&gt;9</title>
<path fill="none" stroke="black" d="M318.95,-268.77C319.04,-260.8 319.14,-251.91 319.24,-243.42"/>
<polygon fill="black" stroke="black" points="322.74,-243.39 319.35,-233.35 315.74,-243.31 322.74,-243.39"/>
</g>
<!-- 10 -->
<g id="node12" class="node">
<title>10</title>
<ellipse fill="none" stroke="black" cx="253.65" cy="-116.61" rx="48.58" ry="26.74"/>
<text text-anchor="middle" x="253.65" y="-120.41" font-family="Times,serif" font-size="14.00">(&#45;)</text>
<text text-anchor="middle" x="253.65" y="-105.41" font-family="Times,serif" font-size="14.00">10[11|11]</text>
</g>
<!-- 9&#45;&gt;10 -->
<g id="edge10" class="edge">
<title>9&#45;&gt;10</title>
<path fill="none" stroke="black" d="M300.91,-180.44C293.77,-170.94 285.52,-159.97 277.93,-149.89"/>
<polygon fill="black" stroke="black" points="280.56,-147.56 271.75,-141.67 274.96,-151.77 280.56,-147.56"/>
</g>
<!-- 11 -->
<g id="node13" class="node">
<title>11</title>
<ellipse fill="none" stroke="black" cx="385.65" cy="-116.61" rx="65.11" ry="26.74"/>
<text text-anchor="middle" x="385.65" y="-120.41" font-family="Times,serif" font-size="14.00">(Exit,2,9)</text>
<text text-anchor="middle" x="385.65" y="-105.41" font-family="Times,serif" font-size="14.00">11[9|Exit,2,9]</text>
</g>
<!-- 9&#45;&gt;11 -->
<g id="edge11" class="edge">
<title>9&#45;&gt;11</title>
<path fill="none" stroke="black" d="M338.38,-180.44C345.35,-171.18 353.37,-160.52 360.8,-150.65"/>
<polygon fill="black" stroke="black" points="363.65,-152.68 366.86,-142.58 358.06,-148.47 363.65,-152.68"/>
</g>
<!-- 12 -->
<g id="node14" class="node">
<title>12</title>
<ellipse fill="none" stroke="black" cx="385.65" cy="-26.87" rx="76.24" ry="26.74"/>
<text text-anchor="middle" x="385.65" y="-30.67" font-family="Times,serif" font-size="14.00">(Exit,2)</text>
<text text-anchor="middle" x="385.65" y="-15.67" font-family="Times,serif" font-size="14.00">12[Exit,2|Exit,2]</text>
</g>
<!-- 11&#45;&gt;12 -->
<g id="edge12" class="edge">
<title>11&#45;&gt;12</title>
<path fill="none" stroke="black" d="M385.65,-89.29C385.65,-81.32 385.65,-72.43 385.65,-63.94"/>
<polygon fill="black" stroke="black" points="389.15,-63.87 385.65,-53.87 382.15,-63.87 389.15,-63.87"/>
</g>
</g>
</svg>
