<?xml version="1.0" encoding="UTF-8" standalone="no"?>
<!DOCTYPE svg PUBLIC "-//W3C//DTD SVG 1.1//EN"
 "http://www.w3.org/Graphics/SVG/1.1/DTD/svg11.dtd">
<!-- Generated by graphviz version 2.47.1 (0)
 -->
<!-- Pages: 1 -->
<svg width="198pt" height="476pt"
 viewBox="0.00 0.00 198.00 476.00" xmlns="http://www.w3.org/2000/svg" xmlns:xlink="http://www.w3.org/1999/xlink">
<g id="graph0" class="graph" transform="scale(1 1) rotate(0) translate(4 472)">
<polygon fill="white" stroke="transparent" points="-4,4 -4,-472 194,-472 194,4 -4,4"/>
<!-- 1 -->
<g id="node1" class="node">
<title>1</title>
<ellipse fill="none" stroke="black" cx="163" cy="-450" rx="27" ry="18"/>
<text text-anchor="middle" x="163" y="-446.3" font-family="Times,serif" font-size="14.00">1</text>
</g>
<!-- 2 -->
<g id="node2" class="node">
<title>2</title>
<ellipse fill="none" stroke="black" cx="163" cy="-378" rx="27" ry="18"/>
<text text-anchor="middle" x="163" y="-374.3" font-family="Times,serif" font-size="14.00">2</text>
</g>
<!-- 1&#45;&gt;2 -->
<g id="edge1" class="edge">
<title>1&#45;&gt;2</title>
<path fill="none" stroke="black" d="M163,-431.7C163,-423.98 163,-414.71 163,-406.11"/>
<polygon fill="black" stroke="black" points="166.5,-406.1 163,-396.1 159.5,-406.1 166.5,-406.1"/>
</g>
<!-- 3 -->
<g id="node3" class="node">
<title>3</title>
<ellipse fill="none" stroke="black" cx="63" cy="-306" rx="27" ry="18"/>
<text text-anchor="middle" x="63" y="-302.3" font-family="Times,serif" font-size="14.00">3</text>
</g>
<!-- 2&#45;&gt;3 -->
<g id="edge2" class="edge">
<title>2&#45;&gt;3</title>
<path fill="none" stroke="black" d="M145.12,-364.49C129.72,-353.7 107.26,-337.98 89.72,-325.7"/>
<polygon fill="black" stroke="black" points="91.26,-322.51 81.06,-319.64 87.25,-328.24 91.26,-322.51"/>
</g>
<!-- 7 -->
<g id="node6" class="node">
<title>7</title>
<ellipse fill="none" stroke="black" cx="163" cy="-90" rx="27" ry="18"/>
<text text-anchor="middle" x="163" y="-86.3" font-family="Times,serif" font-size="14.00">7</text>
</g>
<!-- 2&#45;&gt;7 -->
<g id="edge11" class="edge">
<title>2&#45;&gt;7</title>
<path fill="none" stroke="black" d="M159.59,-359.97C155.4,-312.18 155.15,-176.54 158.83,-118.22"/>
<polygon fill="black" stroke="black" points="162.35,-118.18 159.59,-107.94 155.37,-117.66 162.35,-118.18"/>
</g>
<!-- 4 -->
<g id="node4" class="node">
<title>4</title>
<ellipse fill="none" stroke="black" cx="27" cy="-234" rx="27" ry="18"/>
<text text-anchor="middle" x="27" y="-230.3" font-family="Times,serif" font-size="14.00">4</text>
</g>
<!-- 3&#45;&gt;4 -->
<g id="edge3" class="edge">
<title>3&#45;&gt;4</title>
<path fill="none" stroke="black" d="M49.73,-290.15C44.38,-281.79 38.57,-271.09 33.99,-261.34"/>
<polygon fill="black" stroke="black" points="37.12,-259.77 29.88,-252.04 30.71,-262.6 37.12,-259.77"/>
</g>
<!-- 5 -->
<g id="node8" class="node">
<title>5</title>
<ellipse fill="none" stroke="black" cx="99" cy="-234" rx="27" ry="18"/>
<text text-anchor="middle" x="99" y="-230.3" font-family="Times,serif" font-size="14.00">5</text>
</g>
<!-- 3&#45;&gt;5 -->
<g id="edge7" class="edge">
<title>3&#45;&gt;5</title>
<path fill="none" stroke="black" d="M71.35,-288.76C75.71,-280.28 81.15,-269.71 86.04,-260.2"/>
<polygon fill="black" stroke="black" points="89.23,-261.64 90.7,-251.15 83.01,-258.44 89.23,-261.64"/>
</g>
<!-- 4&#45;&gt;3 -->
<g id="edge9" class="edge">
<title>4&#45;&gt;3</title>
<path fill="none" stroke="black" d="M40.3,-249.89C45.66,-258.28 51.48,-269 56.06,-278.75"/>
<polygon fill="black" stroke="black" points="52.93,-280.32 60.16,-288.05 59.33,-277.49 52.93,-280.32"/>
</g>
<!-- 6 -->
<g id="node5" class="node">
<title>6</title>
<ellipse fill="none" stroke="black" cx="99" cy="-162" rx="27" ry="18"/>
<text text-anchor="middle" x="99" y="-158.3" font-family="Times,serif" font-size="14.00">6</text>
</g>
<!-- 4&#45;&gt;6 -->
<g id="edge4" class="edge">
<title>4&#45;&gt;6</title>
<path fill="none" stroke="black" d="M41.57,-218.83C51.75,-208.94 65.52,-195.55 77.03,-184.36"/>
<polygon fill="black" stroke="black" points="79.47,-186.87 84.2,-177.38 74.59,-181.85 79.47,-186.87"/>
</g>
<!-- 6&#45;&gt;7 -->
<g id="edge5" class="edge">
<title>6&#45;&gt;7</title>
<path fill="none" stroke="black" d="M112.57,-146.15C121.31,-136.6 132.83,-123.99 142.66,-113.25"/>
<polygon fill="black" stroke="black" points="145.28,-115.57 149.45,-105.82 140.12,-110.84 145.28,-115.57"/>
</g>
<!-- 7&#45;&gt;2 -->
<g id="edge10" class="edge">
<title>7&#45;&gt;2</title>
<path fill="none" stroke="black" d="M166.41,-107.94C170.59,-155.62 170.85,-291.25 167.17,-349.68"/>
<polygon fill="black" stroke="black" points="163.66,-349.74 166.41,-359.97 170.64,-350.25 163.66,-349.74"/>
</g>
<!-- 8 -->
<g id="node7" class="node">
<title>8</title>
<ellipse fill="none" stroke="black" cx="163" cy="-18" rx="27" ry="18"/>
<text text-anchor="middle" x="163" y="-14.3" font-family="Times,serif" font-size="14.00">8</text>
</g>
<!-- 7&#45;&gt;8 -->
<g id="edge6" class="edge">
<title>7&#45;&gt;8</title>
<path fill="none" stroke="black" d="M163,-71.7C163,-63.98 163,-54.71 163,-46.11"/>
<polygon fill="black" stroke="black" points="166.5,-46.1 163,-36.1 159.5,-46.1 166.5,-46.1"/>
</g>
<!-- 5&#45;&gt;6 -->
<g id="edge8" class="edge">
<title>5&#45;&gt;6</title>
<path fill="none" stroke="black" d="M99,-215.7C99,-207.98 99,-198.71 99,-190.11"/>
<polygon fill="black" stroke="black" points="102.5,-190.1 99,-180.1 95.5,-190.1 102.5,-190.1"/>
</g>
</g>
</svg>
