<?xml version="1.0" encoding="UTF-8" standalone="no"?>
<!DOCTYPE svg PUBLIC "-//W3C//DTD SVG 1.1//EN"
 "http://www.w3.org/Graphics/SVG/1.1/DTD/svg11.dtd">
<!-- Generated by graphviz version 2.47.1 (0)
 -->
<!-- Pages: 1 -->
<svg width="243pt" height="398pt"
 viewBox="0.00 0.00 242.50 398.00" xmlns="http://www.w3.org/2000/svg" xmlns:xlink="http://www.w3.org/1999/xlink">
<g id="graph0" class="graph" transform="scale(1 1) rotate(0) translate(4 394)">
<polygon fill="white" stroke="transparent" points="-4,4 -4,-394 238.5,-394 238.5,4 -4,4"/>
<!-- entry -->
<g id="node1" class="node">
<title>entry</title>
<polygon fill="none" stroke="black" points="184,-390 125,-390 125,-354 184,-354 184,-390"/>
<text text-anchor="middle" x="154.5" y="-368.3" font-family="Times,serif" font-size="14.00">A0 := 0</text>
</g>
<!-- if_p -->
<g id="node2" class="node">
<title>if_p</title>
<polygon fill="none" stroke="black" points="234.5,-317 74.5,-317 74.5,-279 234.5,-279 234.5,-317"/>
<text text-anchor="start" x="82.5" y="-301.8" font-family="Times,serif" font-size="14.00">A4 := μ(A0, γ(b, A3, ∅))</text>
<text text-anchor="start" x="82.5" y="-286.8" font-family="Times,serif" font-size="14.00">if (P)</text>
</g>
<!-- entry&#45;&gt;if_p -->
<g id="edge1" class="edge">
<title>entry&#45;&gt;if_p</title>
<path fill="none" stroke="black" d="M154.5,-353.94C154.5,-345.99 154.5,-336.31 154.5,-327.31"/>
<polygon fill="black" stroke="black" points="158,-327.2 154.5,-317.2 151,-327.2 158,-327.2"/>
</g>
<!-- assign1 -->
<g id="node3" class="node">
<title>assign1</title>
<polygon fill="none" stroke="black" points="91,-228 0,-228 0,-192 91,-192 91,-228"/>
<text text-anchor="middle" x="45.5" y="-206.3" font-family="Times,serif" font-size="14.00">A1 := A4 + 1</text>
</g>
<!-- if_p&#45;&gt;assign1 -->
<g id="edge2" class="edge">
<title>if_p&#45;&gt;assign1</title>
<path fill="none" stroke="black" d="M131.65,-278.97C115.34,-266.1 93.25,-248.67 75.52,-234.68"/>
<polygon fill="black" stroke="black" points="77.22,-231.57 67.21,-228.13 72.89,-237.07 77.22,-231.57"/>
<text text-anchor="middle" x="109.5" y="-249.8" font-family="Times,serif" font-size="14.00">t</text>
</g>
<!-- assign2 -->
<g id="node4" class="node">
<title>assign2</title>
<polygon fill="none" stroke="black" points="200,-228 109,-228 109,-192 200,-192 200,-228"/>
<text text-anchor="middle" x="154.5" y="-206.3" font-family="Times,serif" font-size="14.00">A2 := A4 + 2</text>
</g>
<!-- if_p&#45;&gt;assign2 -->
<g id="edge3" class="edge">
<title>if_p&#45;&gt;assign2</title>
<path fill="none" stroke="black" d="M154.5,-278.76C154.5,-266.93 154.5,-251.32 154.5,-238.05"/>
<polygon fill="black" stroke="black" points="158,-238.04 154.5,-228.04 151,-238.04 158,-238.04"/>
<text text-anchor="middle" x="157" y="-249.8" font-family="Times,serif" font-size="14.00">f</text>
</g>
<!-- merge -->
<g id="node5" class="node">
<title>merge</title>
<polygon fill="none" stroke="black" points="214.5,-155 94.5,-155 94.5,-87 214.5,-87 214.5,-155"/>
<text text-anchor="start" x="102.5" y="-139.8" font-family="Times,serif" font-size="14.00">A3 := γ(c, A1, A2)</text>
<text text-anchor="start" x="102.5" y="-124.8" font-family="Times,serif" font-size="14.00">Q&#39; := !Q</text>
<text text-anchor="start" x="102.5" y="-109.8" font-family="Times,serif" font-size="14.00">A5 := η(Q&#39;, A3)</text>
<text text-anchor="start" x="102.5" y="-94.8" font-family="Times,serif" font-size="14.00">while (Q)</text>
</g>
<!-- assign1&#45;&gt;merge -->
<g id="edge4" class="edge">
<title>assign1&#45;&gt;merge</title>
<path fill="none" stroke="black" d="M67.03,-191.81C78.03,-183.04 91.89,-171.97 105.32,-161.25"/>
<polygon fill="black" stroke="black" points="107.52,-163.98 113.15,-155 103.15,-158.51 107.52,-163.98"/>
</g>
<!-- assign2&#45;&gt;merge -->
<g id="edge5" class="edge">
<title>assign2&#45;&gt;merge</title>
<path fill="none" stroke="black" d="M154.5,-191.81C154.5,-184.1 154.5,-174.63 154.5,-165.17"/>
<polygon fill="black" stroke="black" points="158,-165 154.5,-155 151,-165 158,-165"/>
</g>
<!-- merge&#45;&gt;if_p -->
<g id="edge6" class="edge">
<title>merge&#45;&gt;if_p</title>
<path fill="none" stroke="black" d="M187.26,-155.28C195.87,-166.11 203.99,-178.78 208.5,-192 213.66,-207.14 213.72,-212.87 208.5,-228 202.93,-244.16 191.84,-259.43 181.16,-271.48"/>
<polygon fill="black" stroke="black" points="178.5,-269.2 174.25,-278.9 183.62,-273.96 178.5,-269.2"/>
<text text-anchor="middle" x="214.5" y="-206.3" font-family="Times,serif" font-size="14.00">t</text>
</g>
<!-- exit -->
<g id="node6" class="node">
<title>exit</title>
<polygon fill="none" stroke="black" points="189.5,-36 119.5,-36 119.5,0 189.5,0 189.5,-36"/>
<text text-anchor="middle" x="154.5" y="-14.3" font-family="Times,serif" font-size="14.00">write(A5)</text>
</g>
<!-- merge&#45;&gt;exit -->
<g id="edge7" class="edge">
<title>merge&#45;&gt;exit</title>
<path fill="none" stroke="black" d="M154.5,-86.93C154.5,-73.85 154.5,-58.99 154.5,-46.51"/>
<polygon fill="black" stroke="black" points="158,-46.26 154.5,-36.26 151,-46.26 158,-46.26"/>
<text text-anchor="middle" x="157" y="-57.8" font-family="Times,serif" font-size="14.00">f</text>
</g>
</g>
</svg>
