<?xml version="1.0" encoding="UTF-8" standalone="no"?>
<!DOCTYPE svg PUBLIC "-//W3C//DTD SVG 1.1//EN"
 "http://www.w3.org/Graphics/SVG/1.1/DTD/svg11.dtd">
<!-- Generated by graphviz version 2.47.1 (0)
 -->
<!-- Pages: 1 -->
<svg width="265pt" height="442pt"
 viewBox="0.00 0.00 265.00 442.00" xmlns="http://www.w3.org/2000/svg" xmlns:xlink="http://www.w3.org/1999/xlink">
<g id="graph0" class="graph" transform="scale(1 1) rotate(0) translate(4 438)">
<polygon fill="white" stroke="transparent" points="-4,4 -4,-438 261,-438 261,4 -4,4"/>
<!-- entry -->
<g id="node1" class="node">
<title>entry</title>
<polygon fill="none" stroke="black" points="196,-434 137,-434 137,-398 196,-398 196,-434"/>
<text text-anchor="middle" x="166.5" y="-412.3" font-family="Times,serif" font-size="14.00">A0 := 0</text>
</g>
<!-- l1 -->
<g id="node2" class="node">
<title>l1</title>
<polygon fill="none" stroke="black" points="257,-361 76,-361 76,-323 257,-323 257,-361"/>
<text text-anchor="start" x="84" y="-345.8" font-family="Times,serif" font-size="14.00">A1 := μ(A0, γ(P, A5, ⊤, ⊤))</text>
<text text-anchor="start" x="84" y="-330.8" font-family="Times,serif" font-size="14.00">l1: A2 := A2 + 1</text>
</g>
<!-- entry&#45;&gt;l1 -->
<g id="edge1" class="edge">
<title>entry&#45;&gt;l1</title>
<path fill="none" stroke="black" d="M166.5,-397.94C166.5,-389.99 166.5,-380.31 166.5,-371.31"/>
<polygon fill="black" stroke="black" points="170,-371.2 166.5,-361.2 163,-371.2 170,-371.2"/>
</g>
<!-- switch -->
<g id="node3" class="node">
<title>switch</title>
<polygon fill="none" stroke="black" points="181,-286 0,-286 0,-233 181,-233 181,-286"/>
<text text-anchor="start" x="8" y="-270.8" font-family="Times,serif" font-size="14.00">A3 := μ(A2, γ(P, ⊤, A4, ⊤))</text>
<text text-anchor="start" x="8" y="-255.8" font-family="Times,serif" font-size="14.00">A4 := A3 + 2</text>
<text text-anchor="start" x="8" y="-240.8" font-family="Times,serif" font-size="14.00">switch (P)</text>
</g>
<!-- l1&#45;&gt;switch -->
<g id="edge2" class="edge">
<title>l1&#45;&gt;switch</title>
<path fill="none" stroke="black" d="M149.25,-322.73C141.09,-314.08 131.08,-303.48 121.65,-293.49"/>
<polygon fill="black" stroke="black" points="124,-290.89 114.59,-286.02 118.91,-295.69 124,-290.89"/>
</g>
<!-- switch&#45;&gt;switch -->
<g id="edge5" class="edge">
<title>switch&#45;&gt;switch</title>
<path fill="none" stroke="black" d="M181.12,-266.59C191.94,-265.3 199,-262.94 199,-259.5 199,-257.3 196.1,-255.54 191.17,-254.22"/>
<polygon fill="black" stroke="black" points="191.58,-250.73 181.12,-252.41 190.34,-257.62 191.58,-250.73"/>
<text text-anchor="middle" x="202.5" y="-255.8" font-family="Times,serif" font-size="14.00">2</text>
</g>
<!-- pb1 -->
<g id="node4" class="node">
<title>pb1</title>
<polygon fill="none" stroke="black" points="256,-196 77,-196 77,-160 256,-160 256,-196"/>
<text text-anchor="middle" x="166.5" y="-174.3" font-family="Times,serif" font-size="14.00">A5 := η(P→{1, default}, A4)</text>
</g>
<!-- switch&#45;&gt;pb1 -->
<g id="edge3" class="edge">
<title>switch&#45;&gt;pb1</title>
<path fill="none" stroke="black" d="M114.97,-232.91C123.92,-223.55 134.02,-212.98 142.89,-203.7"/>
<polygon fill="black" stroke="black" points="145.62,-205.9 150,-196.26 140.56,-201.07 145.62,-205.9"/>
</g>
<!-- pb1&#45;&gt;l1 -->
<g id="edge4" class="edge">
<title>pb1&#45;&gt;l1</title>
<path fill="none" stroke="black" d="M187.72,-196.14C197.91,-205.76 209.06,-218.7 214.5,-233 222.87,-255.02 222.77,-263.94 214.5,-286 210.41,-296.9 203.08,-307.06 195.35,-315.61"/>
<polygon fill="black" stroke="black" points="192.66,-313.36 188.23,-322.98 197.69,-318.22 192.66,-313.36"/>
<text text-anchor="middle" x="225" y="-255.8" font-family="Times,serif" font-size="14.00">1</text>
</g>
<!-- pb2 -->
<g id="node5" class="node">
<title>pb2</title>
<polygon fill="none" stroke="black" points="249,-123 84,-123 84,-87 249,-87 249,-123"/>
<text text-anchor="middle" x="166.5" y="-101.3" font-family="Times,serif" font-size="14.00">A6 := η(P→{default}, A5)</text>
</g>
<!-- pb1&#45;&gt;pb2 -->
<g id="edge6" class="edge">
<title>pb1&#45;&gt;pb2</title>
<path fill="none" stroke="black" d="M166.5,-159.81C166.5,-151.79 166.5,-142.05 166.5,-133.07"/>
<polygon fill="black" stroke="black" points="170,-133.03 166.5,-123.03 163,-133.03 170,-133.03"/>
</g>
<!-- write -->
<g id="node6" class="node">
<title>write</title>
<polygon fill="none" stroke="black" points="198,-36 135,-36 135,0 198,0 198,-36"/>
<text text-anchor="middle" x="166.5" y="-14.3" font-family="Times,serif" font-size="14.00">write(A)</text>
</g>
<!-- pb2&#45;&gt;write -->
<g id="edge7" class="edge">
<title>pb2&#45;&gt;write</title>
<path fill="none" stroke="black" d="M166.5,-86.8C166.5,-75.16 166.5,-59.55 166.5,-46.24"/>
<polygon fill="black" stroke="black" points="170,-46.18 166.5,-36.18 163,-46.18 170,-46.18"/>
<text text-anchor="middle" x="185.5" y="-57.8" font-family="Times,serif" font-size="14.00">default</text>
</g>
</g>
</svg>
