<?xml version="1.0" encoding="UTF-8" standalone="no"?>
<!DOCTYPE svg PUBLIC "-//W3C//DTD SVG 1.1//EN"
 "http://www.w3.org/Graphics/SVG/1.1/DTD/svg11.dtd">
<!-- Generated by graphviz version 2.47.1 (0)
 -->
<!-- Pages: 1 -->
<svg width="121pt" height="293pt"
 viewBox="0.00 0.00 121.25 293.00" xmlns="http://www.w3.org/2000/svg" xmlns:xlink="http://www.w3.org/1999/xlink">
<g id="graph0" class="graph" transform="scale(1 1) rotate(0) translate(4 289)">
<polygon fill="white" stroke="transparent" points="-4,4 -4,-289 117.25,-289 117.25,4 -4,4"/>
<!-- entry -->
<g id="node1" class="node">
<title>entry</title>
<polygon fill="none" stroke="black" points="77.25,-285 23.25,-285 23.25,-249 77.25,-249 77.25,-285"/>
<text text-anchor="middle" x="50.25" y="-263.3" font-family="Times,serif" font-size="14.00">A := 0</text>
</g>
<!-- l1 -->
<g id="node2" class="node">
<title>l1</title>
<polygon fill="none" stroke="black" points="88.25,-212 12.25,-212 12.25,-176 88.25,-176 88.25,-212"/>
<text text-anchor="middle" x="50.25" y="-190.3" font-family="Times,serif" font-size="14.00">A := A + 1</text>
</g>
<!-- entry&#45;&gt;l1 -->
<g id="edge1" class="edge">
<title>entry&#45;&gt;l1</title>
<path fill="none" stroke="black" d="M50.25,-248.81C50.25,-240.79 50.25,-231.05 50.25,-222.07"/>
<polygon fill="black" stroke="black" points="53.75,-222.03 50.25,-212.03 46.75,-222.03 53.75,-222.03"/>
</g>
<!-- switch -->
<g id="node3" class="node">
<title>switch</title>
<polygon fill="none" stroke="black" points="88.25,-125 12.25,-125 12.25,-87 88.25,-87 88.25,-125"/>
<text text-anchor="start" x="20.25" y="-109.8" font-family="Times,serif" font-size="14.00">A := A + 2</text>
<text text-anchor="start" x="20.25" y="-94.8" font-family="Times,serif" font-size="14.00">switch (P)</text>
</g>
<!-- l1&#45;&gt;switch -->
<g id="edge2" class="edge">
<title>l1&#45;&gt;switch</title>
<path fill="none" stroke="black" d="M50.25,-175.6C50.25,-164.06 50.25,-148.65 50.25,-135.36"/>
<polygon fill="black" stroke="black" points="53.75,-135.27 50.25,-125.27 46.75,-135.27 53.75,-135.27"/>
</g>
<!-- switch&#45;&gt;l1 -->
<g id="edge3" class="edge">
<title>switch:nw&#45;&gt;l1:sw</title>
<path fill="none" stroke="black" d="M12.25,-125C-1.15,-138.4 -3.35,-153.83 5.65,-167.9"/>
<polygon fill="black" stroke="black" points="3.22,-170.46 12.25,-176 8.65,-166.04 3.22,-170.46"/>
<text text-anchor="middle" x="4.75" y="-146.8" font-family="Times,serif" font-size="14.00">1</text>
</g>
<!-- switch&#45;&gt;switch -->
<g id="edge4" class="edge">
<title>switch:se&#45;&gt;switch:ne</title>
<path fill="none" stroke="black" d="M88.25,-87C94.25,-76 106.25,-76 106.25,-106 106.25,-125.69 101.08,-132.46 95.83,-131.67"/>
<polygon fill="black" stroke="black" points="98.07,-128.98 88.25,-125 93.44,-134.23 98.07,-128.98"/>
<text text-anchor="middle" x="109.75" y="-102.3" font-family="Times,serif" font-size="14.00">2</text>
</g>
<!-- write -->
<g id="node4" class="node">
<title>write</title>
<polygon fill="none" stroke="black" points="81.75,-36 18.75,-36 18.75,0 81.75,0 81.75,-36"/>
<text text-anchor="middle" x="50.25" y="-14.3" font-family="Times,serif" font-size="14.00">write(A)</text>
</g>
<!-- switch&#45;&gt;write -->
<g id="edge5" class="edge">
<title>switch&#45;&gt;write</title>
<path fill="none" stroke="black" d="M50.25,-86.76C50.25,-74.93 50.25,-59.32 50.25,-46.05"/>
<polygon fill="black" stroke="black" points="53.75,-46.04 50.25,-36.04 46.75,-46.04 53.75,-46.04"/>
<text text-anchor="middle" x="69.25" y="-57.8" font-family="Times,serif" font-size="14.00">default</text>
</g>
</g>
</svg>
