<?xml version="1.0" encoding="UTF-8" standalone="no"?>
<!DOCTYPE svg PUBLIC "-//W3C//DTD SVG 1.1//EN"
 "http://www.w3.org/Graphics/SVG/1.1/DTD/svg11.dtd">
<!-- Generated by graphviz version 2.47.1 (0)
 -->
<!-- Pages: 1 -->
<svg width="528pt" height="342pt"
 viewBox="0.00 0.00 528.10 342.00" xmlns="http://www.w3.org/2000/svg" xmlns:xlink="http://www.w3.org/1999/xlink">
<g id="graph0" class="graph" transform="scale(1 1) rotate(0) translate(4 338)">
<polygon fill="white" stroke="transparent" points="-4,4 -4,-338 524.1,-338 524.1,4 -4,4"/>
<!-- read -->
<g id="node1" class="node">
<title>read</title>
<path fill="none" stroke="black" d="M190.6,-334C190.6,-334 132.6,-334 132.6,-334 126.6,-334 120.6,-328 120.6,-322 120.6,-322 120.6,-308 120.6,-308 120.6,-302 126.6,-296 132.6,-296 132.6,-296 190.6,-296 190.6,-296 196.6,-296 202.6,-302 202.6,-308 202.6,-308 202.6,-322 202.6,-322 202.6,-328 196.6,-334 190.6,-334"/>
<text text-anchor="middle" x="161.6" y="-318.8" font-family="Times,serif" font-size="14.00">dfs:1 stmt:1</text>
<text text-anchor="start" x="128.6" y="-303.8" font-family="Times,serif" font-size="14.00">read(A)</text>
</g>
<!-- if_p -->
<g id="node2" class="node">
<title>if_p</title>
<path fill="none" stroke="black" d="M190.6,-260C190.6,-260 132.6,-260 132.6,-260 126.6,-260 120.6,-254 120.6,-248 120.6,-248 120.6,-234 120.6,-234 120.6,-228 126.6,-222 132.6,-222 132.6,-222 190.6,-222 190.6,-222 196.6,-222 202.6,-228 202.6,-234 202.6,-234 202.6,-248 202.6,-248 202.6,-254 196.6,-260 190.6,-260"/>
<text text-anchor="middle" x="161.6" y="-244.8" font-family="Times,serif" font-size="14.00">dfs:2 stmt:2</text>
<text text-anchor="start" x="128.6" y="-229.8" font-family="Times,serif" font-size="14.00">if (P)</text>
</g>
<!-- read&#45;&gt;if_p -->
<g id="edge1" class="edge">
<title>read&#45;&gt;if_p</title>
<path fill="none" stroke="black" d="M161.6,-295.83C161.6,-288.13 161.6,-278.97 161.6,-270.42"/>
<polygon fill="black" stroke="black" points="165.1,-270.41 161.6,-260.41 158.1,-270.41 165.1,-270.41"/>
</g>
<!-- if_q -->
<g id="node3" class="node">
<title>if_q</title>
<path fill="none" stroke="black" d="M294.6,-186C294.6,-186 236.6,-186 236.6,-186 230.6,-186 224.6,-180 224.6,-174 224.6,-174 224.6,-160 224.6,-160 224.6,-154 230.6,-148 236.6,-148 236.6,-148 294.6,-148 294.6,-148 300.6,-148 306.6,-154 306.6,-160 306.6,-160 306.6,-174 306.6,-174 306.6,-180 300.6,-186 294.6,-186"/>
<text text-anchor="middle" x="265.6" y="-170.8" font-family="Times,serif" font-size="14.00">dfs:8 stmt:3</text>
<text text-anchor="start" x="232.6" y="-155.8" font-family="Times,serif" font-size="14.00">if (Q)</text>
</g>
<!-- if_p&#45;&gt;if_q -->
<g id="edge2" class="edge">
<title>if_p&#45;&gt;if_q</title>
<path fill="none" stroke="black" d="M187.84,-221.83C200.9,-212.79 216.85,-201.75 230.9,-192.02"/>
<polygon fill="black" stroke="black" points="233.13,-194.73 239.36,-186.16 229.15,-188.98 233.13,-194.73"/>
</g>
<!-- while_r -->
<g id="node5" class="node">
<title>while_r</title>
<path fill="none" stroke="black" d="M86.6,-186C86.6,-186 28.6,-186 28.6,-186 22.6,-186 16.6,-180 16.6,-174 16.6,-174 16.6,-160 16.6,-160 16.6,-154 22.6,-148 28.6,-148 28.6,-148 86.6,-148 86.6,-148 92.6,-148 98.6,-154 98.6,-160 98.6,-160 98.6,-174 98.6,-174 98.6,-180 92.6,-186 86.6,-186"/>
<text text-anchor="middle" x="57.6" y="-170.8" font-family="Times,serif" font-size="14.00">dfs:3 stmt:5</text>
<text text-anchor="start" x="24.6" y="-155.8" font-family="Times,serif" font-size="14.00">while (R)</text>
</g>
<!-- if_p&#45;&gt;while_r -->
<g id="edge5" class="edge">
<title>if_p&#45;&gt;while_r</title>
<path fill="none" stroke="black" d="M135.35,-221.83C122.3,-212.79 106.34,-201.75 92.29,-192.02"/>
<polygon fill="black" stroke="black" points="94.05,-188.98 83.83,-186.16 90.06,-194.73 94.05,-188.98"/>
</g>
<!-- endif_q -->
<g id="node12" class="node">
<title>endif_q</title>
<path fill="none" stroke="black" d="M194.1,-186C194.1,-186 129.1,-186 129.1,-186 123.1,-186 117.1,-180 117.1,-174 117.1,-174 117.1,-160 117.1,-160 117.1,-154 123.1,-148 129.1,-148 129.1,-148 194.1,-148 194.1,-148 200.1,-148 206.1,-154 206.1,-160 206.1,-160 206.1,-174 206.1,-174 206.1,-180 200.1,-186 194.1,-186"/>
<text text-anchor="middle" x="161.6" y="-170.8" font-family="Times,serif" font-size="14.00">dfs:6 stmt:14</text>
<text text-anchor="start" x="125.1" y="-155.8" font-family="Times,serif" font-size="14.00">endif (Q)</text>
</g>
<!-- if_p&#45;&gt;endif_q -->
<g id="edge11" class="edge">
<title>if_p&#45;&gt;endif_q</title>
<path fill="none" stroke="black" d="M161.6,-221.83C161.6,-214.13 161.6,-204.97 161.6,-196.42"/>
<polygon fill="black" stroke="black" points="165.1,-196.41 161.6,-186.41 158.1,-196.41 165.1,-196.41"/>
</g>
<!-- assign5 -->
<g id="node4" class="node">
<title>assign5</title>
<path fill="none" stroke="black" d="M294.6,-112C294.6,-112 236.6,-112 236.6,-112 230.6,-112 224.6,-106 224.6,-100 224.6,-100 224.6,-86 224.6,-86 224.6,-80 230.6,-74 236.6,-74 236.6,-74 294.6,-74 294.6,-74 300.6,-74 306.6,-80 306.6,-86 306.6,-86 306.6,-100 306.6,-100 306.6,-106 300.6,-112 294.6,-112"/>
<text text-anchor="middle" x="265.6" y="-96.8" font-family="Times,serif" font-size="14.00">dfs:9 stmt:4</text>
<text text-anchor="start" x="232.6" y="-81.8" font-family="Times,serif" font-size="14.00">A := 5</text>
</g>
<!-- if_q&#45;&gt;assign5 -->
<g id="edge3" class="edge">
<title>if_q&#45;&gt;assign5</title>
<path fill="none" stroke="black" d="M265.6,-147.83C265.6,-140.13 265.6,-130.97 265.6,-122.42"/>
<polygon fill="black" stroke="black" points="269.1,-122.41 265.6,-112.41 262.1,-122.41 269.1,-122.41"/>
</g>
<!-- if_t -->
<g id="node8" class="node">
<title>if_t</title>
<path fill="none" stroke="black" d="M402.1,-112C402.1,-112 337.1,-112 337.1,-112 331.1,-112 325.1,-106 325.1,-100 325.1,-100 325.1,-86 325.1,-86 325.1,-80 331.1,-74 337.1,-74 337.1,-74 402.1,-74 402.1,-74 408.1,-74 414.1,-80 414.1,-86 414.1,-86 414.1,-100 414.1,-100 414.1,-106 408.1,-112 402.1,-112"/>
<text text-anchor="middle" x="369.6" y="-96.8" font-family="Times,serif" font-size="14.00">dfs:10 stmt:9</text>
<text text-anchor="start" x="333.1" y="-81.8" font-family="Times,serif" font-size="14.00">if (T)</text>
</g>
<!-- if_q&#45;&gt;if_t -->
<g id="edge4" class="edge">
<title>if_q&#45;&gt;if_t</title>
<path fill="none" stroke="black" d="M291.84,-147.83C304.9,-138.79 320.85,-127.75 334.9,-118.02"/>
<polygon fill="black" stroke="black" points="337.13,-120.73 343.36,-112.16 333.15,-114.98 337.13,-120.73"/>
</g>
<!-- assign5&#45;&gt;while_r -->
<g id="edge17" class="edge">
<title>assign5&#45;&gt;while_r</title>
<path fill="none" stroke="gray" stroke-dasharray="5,2" d="M224.42,-108.59C221.1,-109.75 217.79,-110.9 214.6,-112 170.03,-127.36 156.59,-131.07 108.52,-147.71"/>
<polygon fill="gray" stroke="gray" points="107.07,-144.51 98.77,-151.1 109.37,-151.12 107.07,-144.51"/>
</g>
<!-- add1 -->
<g id="node6" class="node">
<title>add1</title>
<path fill="none" stroke="black" d="M86.6,-112C86.6,-112 28.6,-112 28.6,-112 22.6,-112 16.6,-106 16.6,-100 16.6,-100 16.6,-86 16.6,-86 16.6,-80 22.6,-74 28.6,-74 28.6,-74 86.6,-74 86.6,-74 92.6,-74 98.6,-80 98.6,-86 98.6,-86 98.6,-100 98.6,-100 98.6,-106 92.6,-112 86.6,-112"/>
<text text-anchor="middle" x="57.6" y="-96.8" font-family="Times,serif" font-size="14.00">dfs:4 stmt:6</text>
<text text-anchor="start" x="24.6" y="-81.8" font-family="Times,serif" font-size="14.00">A := A + 1</text>
</g>
<!-- while_r&#45;&gt;add1 -->
<g id="edge6" class="edge">
<title>while_r&#45;&gt;add1</title>
<path fill="none" stroke="black" d="M57.6,-147.83C57.6,-140.13 57.6,-130.97 57.6,-122.42"/>
<polygon fill="black" stroke="black" points="61.1,-122.41 57.6,-112.41 54.1,-122.41 61.1,-122.41"/>
</g>
<!-- while_r&#45;&gt;endif_q -->
<!-- while_r&#45;&gt;endif_q -->
<g id="edge18" class="edge">
<title>while_r&#45;&gt;endif_q</title>
<path fill="none" stroke="gray" stroke-dasharray="5,2" d="M98.63,-180.62C101.28,-180.92 103.94,-181.12 106.59,-181.2"/>
<polygon fill="gray" stroke="gray" points="106.91,-184.7 116.83,-180.97 106.76,-177.7 106.91,-184.7"/>
</g>
<!-- enddo -->
<g id="node7" class="node">
<title>enddo</title>
<path fill="none" stroke="black" d="M72.6,-38C72.6,-38 14.6,-38 14.6,-38 8.6,-38 2.6,-32 2.6,-26 2.6,-26 2.6,-12 2.6,-12 2.6,-6 8.6,0 14.6,0 14.6,0 72.6,0 72.6,0 78.6,0 84.6,-6 84.6,-12 84.6,-12 84.6,-26 84.6,-26 84.6,-32 78.6,-38 72.6,-38"/>
<text text-anchor="middle" x="43.6" y="-22.8" font-family="Times,serif" font-size="14.00">dfs:5 stmt:7</text>
<text text-anchor="start" x="10.6" y="-7.8" font-family="Times,serif" font-size="14.00">enddo</text>
</g>
<!-- add1&#45;&gt;enddo -->
<g id="edge7" class="edge">
<title>add1&#45;&gt;enddo</title>
<path fill="none" stroke="black" d="M54.06,-73.83C52.57,-66.13 50.79,-56.97 49.12,-48.42"/>
<polygon fill="black" stroke="black" points="52.52,-47.56 47.18,-38.41 45.65,-48.9 52.52,-47.56"/>
</g>
<!-- enddo&#45;&gt;while_r -->
<g id="edge19" class="edge">
<title>enddo:w&#45;&gt;while_r:w</title>
<path fill="none" stroke="gray" stroke-dasharray="5,2" d="M1.6,-19C-1.48,-19 1.36,-126.32 10.34,-158.19"/>
<polygon fill="gray" stroke="gray" points="7.47,-160.2 15.6,-167 13.48,-156.62 7.47,-160.2"/>
</g>
<!-- multiply3 -->
<g id="node9" class="node">
<title>multiply3</title>
<path fill="none" stroke="black" d="M282.1,-38C282.1,-38 211.1,-38 211.1,-38 205.1,-38 199.1,-32 199.1,-26 199.1,-26 199.1,-12 199.1,-12 199.1,-6 205.1,0 211.1,0 211.1,0 282.1,0 282.1,0 288.1,0 294.1,-6 294.1,-12 294.1,-12 294.1,-26 294.1,-26 294.1,-32 288.1,-38 282.1,-38"/>
<text text-anchor="middle" x="246.6" y="-22.8" font-family="Times,serif" font-size="14.00">dfs:11 stmt:10</text>
<text text-anchor="start" x="207.1" y="-7.8" font-family="Times,serif" font-size="14.00">A := A * 3</text>
</g>
<!-- if_t&#45;&gt;multiply3 -->
<g id="edge9" class="edge">
<title>if_t&#45;&gt;multiply3</title>
<path fill="none" stroke="black" d="M338.56,-73.83C322.83,-64.62 303.54,-53.33 286.69,-43.47"/>
<polygon fill="black" stroke="black" points="288.02,-40.19 277.63,-38.16 284.49,-46.24 288.02,-40.19"/>
</g>
<!-- add6 -->
<g id="node10" class="node">
<title>add6</title>
<path fill="none" stroke="black" d="M395.1,-38C395.1,-38 324.1,-38 324.1,-38 318.1,-38 312.1,-32 312.1,-26 312.1,-26 312.1,-12 312.1,-12 312.1,-6 318.1,0 324.1,0 324.1,0 395.1,0 395.1,0 401.1,0 407.1,-6 407.1,-12 407.1,-12 407.1,-26 407.1,-26 407.1,-32 401.1,-38 395.1,-38"/>
<text text-anchor="middle" x="359.6" y="-22.8" font-family="Times,serif" font-size="14.00">dfs:12 stmt:12</text>
<text text-anchor="start" x="320.1" y="-7.8" font-family="Times,serif" font-size="14.00">A := A + 6</text>
</g>
<!-- if_t&#45;&gt;add6 -->
<g id="edge8" class="edge">
<title>if_t&#45;&gt;add6</title>
<path fill="none" stroke="black" d="M367.07,-73.83C366,-66.13 364.73,-56.97 363.54,-48.42"/>
<polygon fill="black" stroke="black" points="367,-47.84 362.15,-38.41 360.06,-48.8 367,-47.84"/>
</g>
<!-- endif_t -->
<g id="node11" class="node">
<title>endif_t</title>
<path fill="none" stroke="black" d="M508.1,-38C508.1,-38 437.1,-38 437.1,-38 431.1,-38 425.1,-32 425.1,-26 425.1,-26 425.1,-12 425.1,-12 425.1,-6 431.1,0 437.1,0 437.1,0 508.1,0 508.1,0 514.1,0 520.1,-6 520.1,-12 520.1,-12 520.1,-26 520.1,-26 520.1,-32 514.1,-38 508.1,-38"/>
<text text-anchor="middle" x="472.6" y="-22.8" font-family="Times,serif" font-size="14.00">dfs:13 stmt:13</text>
<text text-anchor="start" x="433.1" y="-7.8" font-family="Times,serif" font-size="14.00">endif (T)</text>
</g>
<!-- if_t&#45;&gt;endif_t -->
<g id="edge10" class="edge">
<title>if_t&#45;&gt;endif_t</title>
<path fill="none" stroke="black" d="M395.59,-73.83C408.52,-64.79 424.32,-53.75 438.24,-44.02"/>
<polygon fill="black" stroke="black" points="440.42,-46.76 446.61,-38.16 436.41,-41.02 440.42,-46.76"/>
</g>
<!-- multiply3&#45;&gt;add6 -->
<!-- multiply3&#45;&gt;endif_t -->
<g id="edge20" class="edge">
<title>multiply3&#45;&gt;endif_t</title>
<path fill="none" stroke="gray" stroke-dasharray="5,2" d="M273.19,-38.01C284.72,-45.14 298.74,-52.38 312.6,-56 353.45,-66.67 366.78,-66.8 407.6,-56 417.97,-53.26 428.41,-48.43 437.8,-43.15"/>
<polygon fill="gray" stroke="gray" points="439.65,-46.13 446.45,-38.01 436.07,-40.11 439.65,-46.13"/>
</g>
<!-- add6&#45;&gt;endif_t -->
<!-- add6&#45;&gt;endif_t -->
<g id="edge21" class="edge">
<title>add6&#45;&gt;endif_t</title>
<path fill="none" stroke="gray" stroke-dasharray="5,2" d="M407.27,-32.9C409.75,-33.1 412.22,-33.21 414.7,-33.24"/>
<polygon fill="gray" stroke="gray" points="415,-36.73 424.88,-32.91 414.77,-29.74 415,-36.73"/>
</g>
<!-- endif_t&#45;&gt;endif_q -->
<g id="edge22" class="edge">
<title>endif_t&#45;&gt;endif_q</title>
<path fill="none" stroke="gray" stroke-dasharray="5,2" d="M468.16,-38.07C461.95,-59.31 448.52,-93.97 423.6,-112 350.11,-165.17 309.34,-127.78 216.04,-148.23"/>
<polygon fill="gray" stroke="gray" points="215.16,-144.84 206.23,-150.55 216.77,-151.65 215.16,-144.84"/>
</g>
<!-- endif_q&#45;&gt;if_q -->
<!-- write -->
<g id="node13" class="node">
<title>write</title>
<path fill="none" stroke="black" d="M194.1,-112C194.1,-112 129.1,-112 129.1,-112 123.1,-112 117.1,-106 117.1,-100 117.1,-100 117.1,-86 117.1,-86 117.1,-80 123.1,-74 129.1,-74 129.1,-74 194.1,-74 194.1,-74 200.1,-74 206.1,-80 206.1,-86 206.1,-86 206.1,-100 206.1,-100 206.1,-106 200.1,-112 194.1,-112"/>
<text text-anchor="middle" x="161.6" y="-96.8" font-family="Times,serif" font-size="14.00">dfs:7 stmt:15</text>
<text text-anchor="start" x="125.1" y="-81.8" font-family="Times,serif" font-size="14.00">write(A)</text>
</g>
<!-- endif_q&#45;&gt;write -->
<g id="edge12" class="edge">
<title>endif_q&#45;&gt;write</title>
<path fill="none" stroke="black" d="M161.6,-147.83C161.6,-140.13 161.6,-130.97 161.6,-122.42"/>
<polygon fill="black" stroke="black" points="165.1,-122.41 161.6,-112.41 158.1,-122.41 165.1,-122.41"/>
</g>
</g>
</svg>
