<?xml version="1.0" encoding="UTF-8" standalone="no"?>
<!DOCTYPE svg PUBLIC "-//W3C//DTD SVG 1.1//EN"
 "http://www.w3.org/Graphics/SVG/1.1/DTD/svg11.dtd">
<!-- Generated by graphviz version 2.47.1 (0)
 -->
<!-- Pages: 1 -->
<svg width="391pt" height="627pt"
 viewBox="0.00 0.00 390.50 627.00" xmlns="http://www.w3.org/2000/svg" xmlns:xlink="http://www.w3.org/1999/xlink">
<g id="graph0" class="graph" transform="scale(1 1) rotate(0) translate(4 623)">
<polygon fill="white" stroke="transparent" points="-4,4 -4,-623 386.5,-623 386.5,4 -4,4"/>
<!-- read -->
<g id="node1" class="node">
<title>read</title>
<polygon fill="none" stroke="black" points="137,-619 55,-619 55,-581 137,-581 137,-619"/>
<text text-anchor="middle" x="96" y="-603.8" font-family="Times,serif" font-size="14.00">dfs:1 stmt:1</text>
<text text-anchor="start" x="63" y="-588.8" font-family="Times,serif" font-size="14.00">read(A)</text>
</g>
<!-- if_p -->
<g id="node2" class="node">
<title>if_p</title>
<polygon fill="none" stroke="black" points="137,-544 55,-544 55,-506 137,-506 137,-544"/>
<text text-anchor="middle" x="96" y="-528.8" font-family="Times,serif" font-size="14.00">dfs:2 stmt:2</text>
<text text-anchor="start" x="63" y="-513.8" font-family="Times,serif" font-size="14.00">if (P)</text>
</g>
<!-- read&#45;&gt;if_p -->
<g id="edge1" class="edge">
<title>read&#45;&gt;if_p</title>
<path fill="none" stroke="black" d="M96,-580.96C96,-572.88 96,-563.18 96,-554.18"/>
<polygon fill="black" stroke="black" points="99.5,-554.09 96,-544.09 92.5,-554.09 99.5,-554.09"/>
</g>
<!-- if_q -->
<g id="node3" class="node">
<title>if_q</title>
<polygon fill="none" stroke="black" points="190,-455 108,-455 108,-417 190,-417 190,-455"/>
<text text-anchor="middle" x="149" y="-439.8" font-family="Times,serif" font-size="14.00">dfs:8 stmt:3</text>
<text text-anchor="start" x="116" y="-424.8" font-family="Times,serif" font-size="14.00">if (Q)</text>
</g>
<!-- if_p&#45;&gt;if_q -->
<g id="edge3" class="edge">
<title>if_p&#45;&gt;if_q</title>
<path fill="none" stroke="black" d="M106.98,-505.97C114.44,-493.73 124.44,-477.32 132.81,-463.58"/>
<polygon fill="black" stroke="black" points="135.82,-465.36 138.03,-455 129.84,-461.72 135.82,-465.36"/>
<text text-anchor="middle" x="128.5" y="-476.8" font-family="Times,serif" font-size="14.00">f</text>
</g>
<!-- while_r -->
<g id="node5" class="node">
<title>while_r</title>
<polygon fill="none" stroke="black" points="151,-277 69,-277 69,-239 151,-239 151,-277"/>
<text text-anchor="middle" x="110" y="-261.8" font-family="Times,serif" font-size="14.00">dfs:3 stmt:5</text>
<text text-anchor="start" x="77" y="-246.8" font-family="Times,serif" font-size="14.00">while (R)</text>
</g>
<!-- if_p&#45;&gt;while_r -->
<g id="edge2" class="edge">
<title>if_p&#45;&gt;while_r</title>
<path fill="none" stroke="black" d="M95.42,-505.85C94.49,-471.2 93.33,-393.27 99,-328 100.18,-314.4 102.45,-299.43 104.62,-286.92"/>
<polygon fill="black" stroke="black" points="108.07,-287.53 106.39,-277.07 101.18,-286.29 108.07,-287.53"/>
<text text-anchor="middle" x="98" y="-387.8" font-family="Times,serif" font-size="14.00">t</text>
</g>
<!-- assign5 -->
<g id="node4" class="node">
<title>assign5</title>
<polygon fill="none" stroke="black" points="190,-366 108,-366 108,-328 190,-328 190,-366"/>
<text text-anchor="middle" x="149" y="-350.8" font-family="Times,serif" font-size="14.00">dfs:9 stmt:4</text>
<text text-anchor="start" x="116" y="-335.8" font-family="Times,serif" font-size="14.00">A := 5</text>
</g>
<!-- if_q&#45;&gt;assign5 -->
<g id="edge4" class="edge">
<title>if_q&#45;&gt;assign5</title>
<path fill="none" stroke="black" d="M149,-416.97C149,-405.19 149,-389.56 149,-376.16"/>
<polygon fill="black" stroke="black" points="152.5,-376 149,-366 145.5,-376 152.5,-376"/>
<text text-anchor="middle" x="151" y="-387.8" font-family="Times,serif" font-size="14.00">t</text>
</g>
<!-- if_t -->
<g id="node8" class="node">
<title>if_t</title>
<polygon fill="none" stroke="black" points="297.5,-366 208.5,-366 208.5,-328 297.5,-328 297.5,-366"/>
<text text-anchor="middle" x="253" y="-350.8" font-family="Times,serif" font-size="14.00">dfs:10 stmt:9</text>
<text text-anchor="start" x="216.5" y="-335.8" font-family="Times,serif" font-size="14.00">if (T)</text>
</g>
<!-- if_q&#45;&gt;if_t -->
<g id="edge5" class="edge">
<title>if_q&#45;&gt;if_t</title>
<path fill="none" stroke="black" d="M170.55,-416.97C185.89,-404.14 206.68,-386.74 223.55,-372.63"/>
<polygon fill="black" stroke="black" points="226.05,-375.1 231.48,-366 221.56,-369.74 226.05,-375.1"/>
<text text-anchor="middle" x="209.5" y="-387.8" font-family="Times,serif" font-size="14.00">f</text>
</g>
<!-- assign5&#45;&gt;while_r -->
<g id="edge6" class="edge">
<title>assign5&#45;&gt;while_r</title>
<path fill="none" stroke="black" d="M140.92,-327.97C135.53,-315.96 128.35,-299.94 122.27,-286.36"/>
<polygon fill="black" stroke="black" points="125.35,-284.7 118.07,-277 118.97,-287.56 125.35,-284.7"/>
</g>
<!-- add1 -->
<g id="node6" class="node">
<title>add1</title>
<polygon fill="none" stroke="black" points="82,-188 0,-188 0,-150 82,-150 82,-188"/>
<text text-anchor="middle" x="41" y="-172.8" font-family="Times,serif" font-size="14.00">dfs:4 stmt:6</text>
<text text-anchor="start" x="8" y="-157.8" font-family="Times,serif" font-size="14.00">A := A + 1</text>
</g>
<!-- while_r&#45;&gt;add1 -->
<g id="edge7" class="edge">
<title>while_r&#45;&gt;add1</title>
<path fill="none" stroke="black" d="M95.7,-238.97C85.9,-226.61 72.73,-210 61.77,-196.18"/>
<polygon fill="black" stroke="black" points="64.23,-193.66 55.28,-188 58.75,-198.01 64.23,-193.66"/>
<text text-anchor="middle" x="82" y="-209.8" font-family="Times,serif" font-size="14.00">t</text>
</g>
<!-- endif_q -->
<g id="node12" class="node">
<title>endif_q</title>
<polygon fill="none" stroke="black" points="229.5,-113 140.5,-113 140.5,-75 229.5,-75 229.5,-113"/>
<text text-anchor="middle" x="185" y="-97.8" font-family="Times,serif" font-size="14.00">dfs:6 stmt:14</text>
<text text-anchor="start" x="148.5" y="-82.8" font-family="Times,serif" font-size="14.00">endif (Q)</text>
</g>
<!-- while_r&#45;&gt;endif_q -->
<g id="edge8" class="edge">
<title>while_r&#45;&gt;endif_q</title>
<path fill="none" stroke="black" d="M118.46,-238.73C131.57,-210.41 156.88,-155.74 172.23,-122.59"/>
<polygon fill="black" stroke="black" points="175.43,-124 176.46,-113.45 169.08,-121.05 175.43,-124"/>
<text text-anchor="middle" x="161.5" y="-165.3" font-family="Times,serif" font-size="14.00">f</text>
</g>
<!-- enddo -->
<g id="node7" class="node">
<title>enddo</title>
<polygon fill="none" stroke="black" points="113,-113 31,-113 31,-75 113,-75 113,-113"/>
<text text-anchor="middle" x="72" y="-97.8" font-family="Times,serif" font-size="14.00">dfs:5 stmt:7</text>
<text text-anchor="start" x="39" y="-82.8" font-family="Times,serif" font-size="14.00">enddo</text>
</g>
<!-- add1&#45;&gt;enddo -->
<g id="edge9" class="edge">
<title>add1&#45;&gt;enddo</title>
<path fill="none" stroke="black" d="M48.66,-149.96C52.2,-141.62 56.48,-131.54 60.41,-122.3"/>
<polygon fill="black" stroke="black" points="63.63,-123.66 64.32,-113.09 57.19,-120.93 63.63,-123.66"/>
</g>
<!-- enddo&#45;&gt;while_r -->
<g id="edge10" class="edge">
<title>enddo&#45;&gt;while_r</title>
<path fill="none" stroke="black" d="M79.06,-113.11C83,-123.73 87.75,-137.48 91,-150 97.82,-176.24 102.97,-206.74 106.18,-228.45"/>
<polygon fill="black" stroke="black" points="102.75,-229.23 107.63,-238.64 109.68,-228.24 102.75,-229.23"/>
</g>
<!-- multiply3 -->
<g id="node9" class="node">
<title>multiply3</title>
<polygon fill="none" stroke="black" points="269.5,-277 174.5,-277 174.5,-239 269.5,-239 269.5,-277"/>
<text text-anchor="middle" x="222" y="-261.8" font-family="Times,serif" font-size="14.00">dfs:11 stmt:10</text>
<text text-anchor="start" x="182.5" y="-246.8" font-family="Times,serif" font-size="14.00">A := A * 3</text>
</g>
<!-- if_t&#45;&gt;multiply3 -->
<g id="edge11" class="edge">
<title>if_t&#45;&gt;multiply3</title>
<path fill="none" stroke="black" d="M246.58,-327.97C242.34,-316.08 236.7,-300.25 231.89,-286.76"/>
<polygon fill="black" stroke="black" points="235.07,-285.25 228.41,-277 228.47,-287.6 235.07,-285.25"/>
<text text-anchor="middle" x="241" y="-298.8" font-family="Times,serif" font-size="14.00">t</text>
</g>
<!-- add6 -->
<g id="node10" class="node">
<title>add6</title>
<polygon fill="none" stroke="black" points="382.5,-277 287.5,-277 287.5,-239 382.5,-239 382.5,-277"/>
<text text-anchor="middle" x="335" y="-261.8" font-family="Times,serif" font-size="14.00">dfs:12 stmt:12</text>
<text text-anchor="start" x="295.5" y="-246.8" font-family="Times,serif" font-size="14.00">A := A + 6</text>
</g>
<!-- if_t&#45;&gt;add6 -->
<g id="edge12" class="edge">
<title>if_t&#45;&gt;add6</title>
<path fill="none" stroke="black" d="M269.99,-327.97C281.86,-315.38 297.89,-298.38 311.05,-284.41"/>
<polygon fill="black" stroke="black" points="313.72,-286.68 318.03,-277 308.63,-281.88 313.72,-286.68"/>
<text text-anchor="middle" x="300.5" y="-298.8" font-family="Times,serif" font-size="14.00">f</text>
</g>
<!-- endif_t -->
<g id="node11" class="node">
<title>endif_t</title>
<polygon fill="none" stroke="black" points="274.5,-188 179.5,-188 179.5,-150 274.5,-150 274.5,-188"/>
<text text-anchor="middle" x="227" y="-172.8" font-family="Times,serif" font-size="14.00">dfs:13 stmt:13</text>
<text text-anchor="start" x="187.5" y="-157.8" font-family="Times,serif" font-size="14.00">endif (T)</text>
</g>
<!-- multiply3&#45;&gt;endif_t -->
<g id="edge13" class="edge">
<title>multiply3&#45;&gt;endif_t</title>
<path fill="none" stroke="black" d="M223.04,-238.97C223.71,-227.19 224.61,-211.56 225.38,-198.16"/>
<polygon fill="black" stroke="black" points="228.89,-198.19 225.97,-188 221.9,-197.79 228.89,-198.19"/>
</g>
<!-- add6&#45;&gt;endif_t -->
<g id="edge14" class="edge">
<title>add6&#45;&gt;endif_t</title>
<path fill="none" stroke="black" d="M312.62,-238.97C296.69,-226.14 275.1,-208.74 257.58,-194.63"/>
<polygon fill="black" stroke="black" points="259.33,-191.55 249.35,-188 254.94,-197 259.33,-191.55"/>
</g>
<!-- endif_t&#45;&gt;endif_q -->
<g id="edge15" class="edge">
<title>endif_t&#45;&gt;endif_q</title>
<path fill="none" stroke="black" d="M216.62,-149.96C211.77,-141.53 205.9,-131.33 200.54,-122.01"/>
<polygon fill="black" stroke="black" points="203.43,-120.01 195.41,-113.09 197.36,-123.5 203.43,-120.01"/>
</g>
<!-- write -->
<g id="node13" class="node">
<title>write</title>
<polygon fill="none" stroke="black" points="229.5,-38 140.5,-38 140.5,0 229.5,0 229.5,-38"/>
<text text-anchor="middle" x="185" y="-22.8" font-family="Times,serif" font-size="14.00">dfs:7 stmt:15</text>
<text text-anchor="start" x="148.5" y="-7.8" font-family="Times,serif" font-size="14.00">write(A)</text>
</g>
<!-- endif_q&#45;&gt;write -->
<g id="edge16" class="edge">
<title>endif_q&#45;&gt;write</title>
<path fill="none" stroke="black" d="M185,-74.96C185,-66.88 185,-57.18 185,-48.18"/>
<polygon fill="black" stroke="black" points="188.5,-48.09 185,-38.09 181.5,-48.09 188.5,-48.09"/>
</g>
</g>
</svg>
