<?xml version="1.0" encoding="UTF-8" standalone="no"?>
<!DOCTYPE svg PUBLIC "-//W3C//DTD SVG 1.1//EN"
 "http://www.w3.org/Graphics/SVG/1.1/DTD/svg11.dtd">
<!-- Generated by graphviz version 2.47.1 (0)
 -->
<!-- Pages: 1 -->
<svg width="421pt" height="192pt"
 viewBox="0.00 0.00 421.00 192.00" xmlns="http://www.w3.org/2000/svg" xmlns:xlink="http://www.w3.org/1999/xlink">
<g id="graph0" class="graph" transform="scale(1 1) rotate(0) translate(4 188)">
<polygon fill="white" stroke="transparent" points="-4,4 -4,-188 417,-188 417,4 -4,4"/>
<!-- 4 -->
<g id="node1" class="node">
<title>4</title>
<polygon fill="none" stroke="black" points="54,-184 0,-184 0,-148 54,-148 54,-184"/>
<text text-anchor="middle" x="27" y="-162.3" font-family="Times,serif" font-size="14.00">4</text>
</g>
<!-- 5 -->
<g id="node2" class="node">
<title>5</title>
<polygon fill="none" stroke="black" points="54,-112 0,-112 0,-74 54,-74 54,-112"/>
<text text-anchor="middle" x="27" y="-96.8" font-family="Times,serif" font-size="14.00">5</text>
<text text-anchor="middle" x="27" y="-81.8" font-family="Times,serif" font-size="14.00">R: Λ</text>
</g>
<!-- 4&#45;&gt;5 -->
<g id="edge1" class="edge">
<title>4&#45;&gt;5</title>
<path fill="none" stroke="black" d="M27,-147.81C27,-140.11 27,-130.82 27,-122.15"/>
<polygon fill="black" stroke="black" points="30.5,-122.02 27,-112.02 23.5,-122.02 30.5,-122.02"/>
</g>
<!-- 6 -->
<g id="node3" class="node">
<title>6</title>
<polygon fill="none" stroke="black" points="126,-184 72,-184 72,-148 126,-148 126,-184"/>
<text text-anchor="middle" x="99" y="-162.3" font-family="Times,serif" font-size="14.00">6</text>
</g>
<!-- 7 -->
<g id="node4" class="node">
<title>7</title>
<polygon fill="none" stroke="black" points="126,-112 72,-112 72,-74 126,-74 126,-112"/>
<text text-anchor="middle" x="99" y="-96.8" font-family="Times,serif" font-size="14.00">7</text>
<text text-anchor="middle" x="99" y="-81.8" font-family="Times,serif" font-size="14.00">R: Λ</text>
</g>
<!-- 6&#45;&gt;7 -->
<g id="edge2" class="edge">
<title>6&#45;&gt;7</title>
<path fill="none" stroke="black" d="M99,-147.81C99,-140.11 99,-130.82 99,-122.15"/>
<polygon fill="black" stroke="black" points="102.5,-122.02 99,-112.02 95.5,-122.02 102.5,-122.02"/>
</g>
<!-- 8 -->
<g id="node5" class="node">
<title>8</title>
<polygon fill="none" stroke="black" points="270,-184 216,-184 216,-148 270,-148 270,-184"/>
<text text-anchor="middle" x="243" y="-162.3" font-family="Times,serif" font-size="14.00">8</text>
</g>
<!-- 9 -->
<g id="node6" class="node">
<title>9</title>
<polygon fill="none" stroke="black" points="234,-112 144,-112 144,-74 234,-74 234,-112"/>
<text text-anchor="middle" x="189" y="-96.8" font-family="Times,serif" font-size="14.00">9</text>
<text text-anchor="middle" x="189" y="-81.8" font-family="Times,serif" font-size="14.00">R: γ(Q,Λ,∅)</text>
</g>
<!-- 8&#45;&gt;9 -->
<g id="edge3" class="edge">
<title>8&#45;&gt;9</title>
<path fill="none" stroke="black" d="M229.93,-147.81C223.62,-139.52 215.91,-129.39 208.9,-120.16"/>
<polygon fill="black" stroke="black" points="211.54,-117.86 202.71,-112.02 205.97,-122.1 211.54,-117.86"/>
</g>
<!-- 10 -->
<g id="node7" class="node">
<title>10</title>
<polygon fill="none" stroke="black" points="342,-112 252,-112 252,-74 342,-74 342,-112"/>
<text text-anchor="middle" x="297" y="-96.8" font-family="Times,serif" font-size="14.00">10</text>
<text text-anchor="middle" x="297" y="-81.8" font-family="Times,serif" font-size="14.00">R: γ(Q,∅,Λ)</text>
</g>
<!-- 8&#45;&gt;10 -->
<g id="edge4" class="edge">
<title>8&#45;&gt;10</title>
<path fill="none" stroke="black" d="M256.07,-147.81C262.38,-139.52 270.09,-129.39 277.1,-120.16"/>
<polygon fill="black" stroke="black" points="280.03,-122.1 283.29,-112.02 274.46,-117.86 280.03,-122.1"/>
</g>
<!-- 11 -->
<g id="node8" class="node">
<title>11</title>
<polygon fill="none" stroke="black" points="235,-38 147,-38 147,0 235,0 235,-38"/>
<text text-anchor="middle" x="191" y="-22.8" font-family="Times,serif" font-size="14.00">11</text>
<text text-anchor="middle" x="191" y="-7.8" font-family="Times,serif" font-size="14.00">R: γ(T,Λ,∅)</text>
</g>
<!-- 10&#45;&gt;11 -->
<g id="edge5" class="edge">
<title>10&#45;&gt;11</title>
<path fill="none" stroke="black" d="M270.25,-73.83C256.94,-64.79 240.68,-53.75 226.36,-44.02"/>
<polygon fill="black" stroke="black" points="227.98,-40.89 217.74,-38.16 224.05,-46.68 227.98,-40.89"/>
</g>
<!-- 12 -->
<g id="node9" class="node">
<title>12</title>
<polygon fill="none" stroke="black" points="341,-38 253,-38 253,0 341,0 341,-38"/>
<text text-anchor="middle" x="297" y="-22.8" font-family="Times,serif" font-size="14.00">12</text>
<text text-anchor="middle" x="297" y="-7.8" font-family="Times,serif" font-size="14.00">R: γ(T,∅,Λ)</text>
</g>
<!-- 10&#45;&gt;12 -->
<g id="edge6" class="edge">
<title>10&#45;&gt;12</title>
<path fill="none" stroke="black" d="M297,-73.83C297,-66.13 297,-56.97 297,-48.42"/>
<polygon fill="black" stroke="black" points="300.5,-48.41 297,-38.41 293.5,-48.41 300.5,-48.41"/>
</g>
<!-- 13 -->
<g id="node10" class="node">
<title>13</title>
<polygon fill="none" stroke="red" points="413,-38 359,-38 359,0 413,0 413,-38"/>
<text text-anchor="middle" x="386" y="-22.8" font-family="Times,serif" font-size="14.00">13</text>
<text text-anchor="middle" x="386" y="-7.8" font-family="Times,serif" font-size="14.00">R: Λ</text>
</g>
<!-- 10&#45;&gt;13 -->
<g id="edge7" class="edge">
<title>10&#45;&gt;13</title>
<path fill="none" stroke="black" d="M319.46,-73.83C330.42,-64.96 343.77,-54.16 355.63,-44.57"/>
<polygon fill="black" stroke="black" points="357.98,-47.17 363.55,-38.16 353.57,-41.73 357.98,-47.17"/>
</g>
</g>
</svg>
