<?xml version="1.0" encoding="UTF-8" standalone="no"?>
<!DOCTYPE svg PUBLIC "-//W3C//DTD SVG 1.1//EN"
 "http://www.w3.org/Graphics/SVG/1.1/DTD/svg11.dtd">
<!-- Generated by graphviz version 2.47.1 (0)
 -->
<!-- Pages: 1 -->
<svg width="457pt" height="192pt"
 viewBox="0.00 0.00 456.50 192.00" xmlns="http://www.w3.org/2000/svg" xmlns:xlink="http://www.w3.org/1999/xlink">
<g id="graph0" class="graph" transform="scale(1 1) rotate(0) translate(4 188)">
<polygon fill="white" stroke="transparent" points="-4,4 -4,-188 452.5,-188 452.5,4 -4,4"/>
<!-- 3 -->
<g id="node1" class="node">
<title>3</title>
<polygon fill="none" stroke="black" points="71.5,-184 17.5,-184 17.5,-148 71.5,-148 71.5,-184"/>
<text text-anchor="middle" x="44.5" y="-162.3" font-family="Times,serif" font-size="14.00">3</text>
</g>
<!-- 4 -->
<g id="node2" class="node">
<title>4</title>
<polygon fill="none" stroke="black" points="89,-112 0,-112 0,-74 89,-74 89,-112"/>
<text text-anchor="middle" x="44.5" y="-96.8" font-family="Times,serif" font-size="14.00">4</text>
<text text-anchor="middle" x="44.5" y="-81.8" font-family="Times,serif" font-size="14.00">R: γ(R,Λ,∅)</text>
</g>
<!-- 3&#45;&gt;4 -->
<g id="edge1" class="edge">
<title>3&#45;&gt;4</title>
<path fill="none" stroke="black" d="M44.5,-147.81C44.5,-140.11 44.5,-130.82 44.5,-122.15"/>
<polygon fill="black" stroke="black" points="48,-122.02 44.5,-112.02 41,-122.02 48,-122.02"/>
</g>
<!-- 5 -->
<g id="node3" class="node">
<title>5</title>
<polygon fill="none" stroke="black" points="71.5,-38 17.5,-38 17.5,0 71.5,0 71.5,-38"/>
<text text-anchor="middle" x="44.5" y="-22.8" font-family="Times,serif" font-size="14.00">5</text>
<text text-anchor="middle" x="44.5" y="-7.8" font-family="Times,serif" font-size="14.00">R: Λ</text>
</g>
<!-- 4&#45;&gt;5 -->
<g id="edge2" class="edge">
<title>4&#45;&gt;5</title>
<path fill="none" stroke="black" d="M44.5,-73.83C44.5,-66.13 44.5,-56.97 44.5,-48.42"/>
<polygon fill="black" stroke="black" points="48,-48.41 44.5,-38.41 41,-48.41 48,-48.41"/>
</g>
<!-- 6 -->
<g id="node4" class="node">
<title>6</title>
<polygon fill="none" stroke="black" points="161.5,-184 107.5,-184 107.5,-148 161.5,-148 161.5,-184"/>
<text text-anchor="middle" x="134.5" y="-162.3" font-family="Times,serif" font-size="14.00">6</text>
</g>
<!-- 7 -->
<g id="node5" class="node">
<title>7</title>
<polygon fill="none" stroke="black" points="161.5,-112 107.5,-112 107.5,-74 161.5,-74 161.5,-112"/>
<text text-anchor="middle" x="134.5" y="-96.8" font-family="Times,serif" font-size="14.00">7</text>
<text text-anchor="middle" x="134.5" y="-81.8" font-family="Times,serif" font-size="14.00">R: Λ</text>
</g>
<!-- 6&#45;&gt;7 -->
<g id="edge3" class="edge">
<title>6&#45;&gt;7</title>
<path fill="none" stroke="black" d="M134.5,-147.81C134.5,-140.11 134.5,-130.82 134.5,-122.15"/>
<polygon fill="black" stroke="black" points="138,-122.02 134.5,-112.02 131,-122.02 138,-122.02"/>
</g>
<!-- 8 -->
<g id="node6" class="node">
<title>8</title>
<polygon fill="none" stroke="black" points="305.5,-184 251.5,-184 251.5,-148 305.5,-148 305.5,-184"/>
<text text-anchor="middle" x="278.5" y="-162.3" font-family="Times,serif" font-size="14.00">8</text>
</g>
<!-- 9 -->
<g id="node7" class="node">
<title>9</title>
<polygon fill="none" stroke="black" points="269.5,-112 179.5,-112 179.5,-74 269.5,-74 269.5,-112"/>
<text text-anchor="middle" x="224.5" y="-96.8" font-family="Times,serif" font-size="14.00">9</text>
<text text-anchor="middle" x="224.5" y="-81.8" font-family="Times,serif" font-size="14.00">R: γ(Q,Λ,∅)</text>
</g>
<!-- 8&#45;&gt;9 -->
<g id="edge4" class="edge">
<title>8&#45;&gt;9</title>
<path fill="none" stroke="black" d="M265.43,-147.81C259.12,-139.52 251.41,-129.39 244.4,-120.16"/>
<polygon fill="black" stroke="black" points="247.04,-117.86 238.21,-112.02 241.47,-122.1 247.04,-117.86"/>
</g>
<!-- 10 -->
<g id="node8" class="node">
<title>10</title>
<polygon fill="none" stroke="black" points="377.5,-112 287.5,-112 287.5,-74 377.5,-74 377.5,-112"/>
<text text-anchor="middle" x="332.5" y="-96.8" font-family="Times,serif" font-size="14.00">10</text>
<text text-anchor="middle" x="332.5" y="-81.8" font-family="Times,serif" font-size="14.00">R: γ(Q,∅,Λ)</text>
</g>
<!-- 8&#45;&gt;10 -->
<g id="edge5" class="edge">
<title>8&#45;&gt;10</title>
<path fill="none" stroke="black" d="M291.57,-147.81C297.88,-139.52 305.59,-129.39 312.6,-120.16"/>
<polygon fill="black" stroke="black" points="315.53,-122.1 318.79,-112.02 309.96,-117.86 315.53,-122.1"/>
</g>
<!-- 11 -->
<g id="node9" class="node">
<title>11</title>
<polygon fill="none" stroke="black" points="270.5,-38 182.5,-38 182.5,0 270.5,0 270.5,-38"/>
<text text-anchor="middle" x="226.5" y="-22.8" font-family="Times,serif" font-size="14.00">11</text>
<text text-anchor="middle" x="226.5" y="-7.8" font-family="Times,serif" font-size="14.00">R: γ(T,Λ,∅)</text>
</g>
<!-- 10&#45;&gt;11 -->
<g id="edge6" class="edge">
<title>10&#45;&gt;11</title>
<path fill="none" stroke="black" d="M305.75,-73.83C292.44,-64.79 276.18,-53.75 261.86,-44.02"/>
<polygon fill="black" stroke="black" points="263.48,-40.89 253.24,-38.16 259.55,-46.68 263.48,-40.89"/>
</g>
<!-- 12 -->
<g id="node10" class="node">
<title>12</title>
<polygon fill="none" stroke="black" points="376.5,-38 288.5,-38 288.5,0 376.5,0 376.5,-38"/>
<text text-anchor="middle" x="332.5" y="-22.8" font-family="Times,serif" font-size="14.00">12</text>
<text text-anchor="middle" x="332.5" y="-7.8" font-family="Times,serif" font-size="14.00">R: γ(T,∅,Λ)</text>
</g>
<!-- 10&#45;&gt;12 -->
<g id="edge7" class="edge">
<title>10&#45;&gt;12</title>
<path fill="none" stroke="black" d="M332.5,-73.83C332.5,-66.13 332.5,-56.97 332.5,-48.42"/>
<polygon fill="black" stroke="black" points="336,-48.41 332.5,-38.41 329,-48.41 336,-48.41"/>
</g>
<!-- 13 -->
<g id="node11" class="node">
<title>13</title>
<polygon fill="none" stroke="red" points="448.5,-38 394.5,-38 394.5,0 448.5,0 448.5,-38"/>
<text text-anchor="middle" x="421.5" y="-22.8" font-family="Times,serif" font-size="14.00">13</text>
<text text-anchor="middle" x="421.5" y="-7.8" font-family="Times,serif" font-size="14.00">R: Λ</text>
</g>
<!-- 10&#45;&gt;13 -->
<g id="edge8" class="edge">
<title>10&#45;&gt;13</title>
<path fill="none" stroke="black" d="M354.96,-73.83C365.92,-64.96 379.27,-54.16 391.13,-44.57"/>
<polygon fill="black" stroke="black" points="393.48,-47.17 399.05,-38.16 389.07,-41.73 393.48,-47.17"/>
</g>
</g>
</svg>
