<?xml version="1.0" encoding="UTF-8" standalone="no"?>
<!DOCTYPE svg PUBLIC "-//W3C//DTD SVG 1.1//EN"
 "http://www.w3.org/Graphics/SVG/1.1/DTD/svg11.dtd">
<!-- Generated by graphviz version 2.47.1 (0)
 -->
<!-- Pages: 1 -->
<svg width="349pt" height="192pt"
 viewBox="0.00 0.00 349.00 192.00" xmlns="http://www.w3.org/2000/svg" xmlns:xlink="http://www.w3.org/1999/xlink">
<g id="graph0" class="graph" transform="scale(1 1) rotate(0) translate(4 188)">
<polygon fill="white" stroke="transparent" points="-4,4 -4,-188 345,-188 345,4 -4,4"/>
<!-- 6 -->
<g id="node1" class="node">
<title>6</title>
<polygon fill="none" stroke="black" points="54,-184 0,-184 0,-148 54,-148 54,-184"/>
<text text-anchor="middle" x="27" y="-162.3" font-family="Times,serif" font-size="14.00">6</text>
</g>
<!-- 7 -->
<g id="node2" class="node">
<title>7</title>
<polygon fill="none" stroke="black" points="54,-112 0,-112 0,-74 54,-74 54,-112"/>
<text text-anchor="middle" x="27" y="-96.8" font-family="Times,serif" font-size="14.00">7</text>
<text text-anchor="middle" x="27" y="-81.8" font-family="Times,serif" font-size="14.00">R: Λ</text>
</g>
<!-- 6&#45;&gt;7 -->
<g id="edge1" class="edge">
<title>6&#45;&gt;7</title>
<path fill="none" stroke="black" d="M27,-147.81C27,-140.11 27,-130.82 27,-122.15"/>
<polygon fill="black" stroke="black" points="30.5,-122.02 27,-112.02 23.5,-122.02 30.5,-122.02"/>
</g>
<!-- 8 -->
<g id="node3" class="node">
<title>8</title>
<polygon fill="none" stroke="black" points="198,-184 144,-184 144,-148 198,-148 198,-184"/>
<text text-anchor="middle" x="171" y="-162.3" font-family="Times,serif" font-size="14.00">8</text>
</g>
<!-- 9 -->
<g id="node4" class="node">
<title>9</title>
<polygon fill="none" stroke="black" points="162,-112 72,-112 72,-74 162,-74 162,-112"/>
<text text-anchor="middle" x="117" y="-96.8" font-family="Times,serif" font-size="14.00">9</text>
<text text-anchor="middle" x="117" y="-81.8" font-family="Times,serif" font-size="14.00">R: γ(Q,Λ,∅)</text>
</g>
<!-- 8&#45;&gt;9 -->
<g id="edge2" class="edge">
<title>8&#45;&gt;9</title>
<path fill="none" stroke="black" d="M157.93,-147.81C151.62,-139.52 143.91,-129.39 136.9,-120.16"/>
<polygon fill="black" stroke="black" points="139.54,-117.86 130.71,-112.02 133.97,-122.1 139.54,-117.86"/>
</g>
<!-- 10 -->
<g id="node5" class="node">
<title>10</title>
<polygon fill="none" stroke="black" points="270,-112 180,-112 180,-74 270,-74 270,-112"/>
<text text-anchor="middle" x="225" y="-96.8" font-family="Times,serif" font-size="14.00">10</text>
<text text-anchor="middle" x="225" y="-81.8" font-family="Times,serif" font-size="14.00">R: γ(Q,∅,Λ)</text>
</g>
<!-- 8&#45;&gt;10 -->
<g id="edge3" class="edge">
<title>8&#45;&gt;10</title>
<path fill="none" stroke="black" d="M184.07,-147.81C190.38,-139.52 198.09,-129.39 205.1,-120.16"/>
<polygon fill="black" stroke="black" points="208.03,-122.1 211.29,-112.02 202.46,-117.86 208.03,-122.1"/>
</g>
<!-- 11 -->
<g id="node6" class="node">
<title>11</title>
<polygon fill="none" stroke="black" points="163,-38 75,-38 75,0 163,0 163,-38"/>
<text text-anchor="middle" x="119" y="-22.8" font-family="Times,serif" font-size="14.00">11</text>
<text text-anchor="middle" x="119" y="-7.8" font-family="Times,serif" font-size="14.00">R: γ(T,Λ,∅)</text>
</g>
<!-- 10&#45;&gt;11 -->
<g id="edge4" class="edge">
<title>10&#45;&gt;11</title>
<path fill="none" stroke="black" d="M198.25,-73.83C184.94,-64.79 168.68,-53.75 154.36,-44.02"/>
<polygon fill="black" stroke="black" points="155.98,-40.89 145.74,-38.16 152.05,-46.68 155.98,-40.89"/>
</g>
<!-- 12 -->
<g id="node7" class="node">
<title>12</title>
<polygon fill="none" stroke="black" points="269,-38 181,-38 181,0 269,0 269,-38"/>
<text text-anchor="middle" x="225" y="-22.8" font-family="Times,serif" font-size="14.00">12</text>
<text text-anchor="middle" x="225" y="-7.8" font-family="Times,serif" font-size="14.00">R: γ(T,∅,Λ)</text>
</g>
<!-- 10&#45;&gt;12 -->
<g id="edge5" class="edge">
<title>10&#45;&gt;12</title>
<path fill="none" stroke="black" d="M225,-73.83C225,-66.13 225,-56.97 225,-48.42"/>
<polygon fill="black" stroke="black" points="228.5,-48.41 225,-38.41 221.5,-48.41 228.5,-48.41"/>
</g>
<!-- 13 -->
<g id="node8" class="node">
<title>13</title>
<polygon fill="none" stroke="red" points="341,-38 287,-38 287,0 341,0 341,-38"/>
<text text-anchor="middle" x="314" y="-22.8" font-family="Times,serif" font-size="14.00">13</text>
<text text-anchor="middle" x="314" y="-7.8" font-family="Times,serif" font-size="14.00">R: Λ</text>
</g>
<!-- 10&#45;&gt;13 -->
<g id="edge6" class="edge">
<title>10&#45;&gt;13</title>
<path fill="none" stroke="black" d="M247.46,-73.83C258.42,-64.96 271.77,-54.16 283.63,-44.57"/>
<polygon fill="black" stroke="black" points="285.98,-47.17 291.55,-38.16 281.57,-41.73 285.98,-47.17"/>
</g>
</g>
</svg>
