<?xml version="1.0" encoding="UTF-8" standalone="no"?>
<!DOCTYPE svg PUBLIC "-//W3C//DTD SVG 1.1//EN"
 "http://www.w3.org/Graphics/SVG/1.1/DTD/svg11.dtd">
<!-- Generated by graphviz version 2.47.1 (0)
 -->
<!-- Pages: 1 -->
<svg width="277pt" height="192pt"
 viewBox="0.00 0.00 277.00 192.00" xmlns="http://www.w3.org/2000/svg" xmlns:xlink="http://www.w3.org/1999/xlink">
<g id="graph0" class="graph" transform="scale(1 1) rotate(0) translate(4 188)">
<polygon fill="white" stroke="transparent" points="-4,4 -4,-188 273,-188 273,4 -4,4"/>
<!-- 8 -->
<g id="node1" class="node">
<title>8</title>
<polygon fill="none" stroke="black" points="126,-184 72,-184 72,-148 126,-148 126,-184"/>
<text text-anchor="middle" x="99" y="-162.3" font-family="Times,serif" font-size="14.00">8</text>
</g>
<!-- 9 -->
<g id="node2" class="node">
<title>9</title>
<polygon fill="none" stroke="black" points="90,-112 0,-112 0,-74 90,-74 90,-112"/>
<text text-anchor="middle" x="45" y="-96.8" font-family="Times,serif" font-size="14.00">9</text>
<text text-anchor="middle" x="45" y="-81.8" font-family="Times,serif" font-size="14.00">R: γ(Q,Λ,∅)</text>
</g>
<!-- 8&#45;&gt;9 -->
<g id="edge1" class="edge">
<title>8&#45;&gt;9</title>
<path fill="none" stroke="black" d="M85.93,-147.81C79.62,-139.52 71.91,-129.39 64.9,-120.16"/>
<polygon fill="black" stroke="black" points="67.54,-117.86 58.71,-112.02 61.97,-122.1 67.54,-117.86"/>
</g>
<!-- 10 -->
<g id="node3" class="node">
<title>10</title>
<polygon fill="none" stroke="black" points="198,-112 108,-112 108,-74 198,-74 198,-112"/>
<text text-anchor="middle" x="153" y="-96.8" font-family="Times,serif" font-size="14.00">10</text>
<text text-anchor="middle" x="153" y="-81.8" font-family="Times,serif" font-size="14.00">R: γ(Q,∅,Λ)</text>
</g>
<!-- 8&#45;&gt;10 -->
<g id="edge2" class="edge">
<title>8&#45;&gt;10</title>
<path fill="none" stroke="black" d="M112.07,-147.81C118.38,-139.52 126.09,-129.39 133.1,-120.16"/>
<polygon fill="black" stroke="black" points="136.03,-122.1 139.29,-112.02 130.46,-117.86 136.03,-122.1"/>
</g>
<!-- 11 -->
<g id="node4" class="node">
<title>11</title>
<polygon fill="none" stroke="black" points="91,-38 3,-38 3,0 91,0 91,-38"/>
<text text-anchor="middle" x="47" y="-22.8" font-family="Times,serif" font-size="14.00">11</text>
<text text-anchor="middle" x="47" y="-7.8" font-family="Times,serif" font-size="14.00">R: γ(T,Λ,∅)</text>
</g>
<!-- 10&#45;&gt;11 -->
<g id="edge3" class="edge">
<title>10&#45;&gt;11</title>
<path fill="none" stroke="black" d="M126.25,-73.83C112.94,-64.79 96.68,-53.75 82.36,-44.02"/>
<polygon fill="black" stroke="black" points="83.98,-40.89 73.74,-38.16 80.05,-46.68 83.98,-40.89"/>
</g>
<!-- 12 -->
<g id="node5" class="node">
<title>12</title>
<polygon fill="none" stroke="black" points="197,-38 109,-38 109,0 197,0 197,-38"/>
<text text-anchor="middle" x="153" y="-22.8" font-family="Times,serif" font-size="14.00">12</text>
<text text-anchor="middle" x="153" y="-7.8" font-family="Times,serif" font-size="14.00">R: γ(T,∅,Λ)</text>
</g>
<!-- 10&#45;&gt;12 -->
<g id="edge4" class="edge">
<title>10&#45;&gt;12</title>
<path fill="none" stroke="black" d="M153,-73.83C153,-66.13 153,-56.97 153,-48.42"/>
<polygon fill="black" stroke="black" points="156.5,-48.41 153,-38.41 149.5,-48.41 156.5,-48.41"/>
</g>
<!-- 13 -->
<g id="node6" class="node">
<title>13</title>
<polygon fill="none" stroke="red" points="269,-38 215,-38 215,0 269,0 269,-38"/>
<text text-anchor="middle" x="242" y="-22.8" font-family="Times,serif" font-size="14.00">13</text>
<text text-anchor="middle" x="242" y="-7.8" font-family="Times,serif" font-size="14.00">R: Λ</text>
</g>
<!-- 10&#45;&gt;13 -->
<g id="edge5" class="edge">
<title>10&#45;&gt;13</title>
<path fill="none" stroke="black" d="M175.46,-73.83C186.42,-64.96 199.77,-54.16 211.63,-44.57"/>
<polygon fill="black" stroke="black" points="213.98,-47.17 219.55,-38.16 209.57,-41.73 213.98,-47.17"/>
</g>
</g>
</svg>
