<?xml version="1.0" encoding="UTF-8" standalone="no"?>
<!DOCTYPE svg PUBLIC "-//W3C//DTD SVG 1.1//EN"
 "http://www.w3.org/Graphics/SVG/1.1/DTD/svg11.dtd">
<!-- Generated by graphviz version 2.47.1 (0)
 -->
<!-- Pages: 1 -->
<svg width="274pt" height="118pt"
 viewBox="0.00 0.00 274.00 118.00" xmlns="http://www.w3.org/2000/svg" xmlns:xlink="http://www.w3.org/1999/xlink">
<g id="graph0" class="graph" transform="scale(1 1) rotate(0) translate(4 114)">
<polygon fill="white" stroke="transparent" points="-4,4 -4,-114 270,-114 270,4 -4,4"/>
<!-- 10 -->
<g id="node1" class="node">
<title>10</title>
<polygon fill="none" stroke="black" points="177,-110 123,-110 123,-74 177,-74 177,-110"/>
<text text-anchor="middle" x="150" y="-88.3" font-family="Times,serif" font-size="14.00">10</text>
</g>
<!-- 11 -->
<g id="node2" class="node">
<title>11</title>
<polygon fill="none" stroke="black" points="88,-38 0,-38 0,0 88,0 88,-38"/>
<text text-anchor="middle" x="44" y="-22.8" font-family="Times,serif" font-size="14.00">11</text>
<text text-anchor="middle" x="44" y="-7.8" font-family="Times,serif" font-size="14.00">R: γ(T,Λ,∅)</text>
</g>
<!-- 10&#45;&gt;11 -->
<g id="edge1" class="edge">
<title>10&#45;&gt;11</title>
<path fill="none" stroke="black" d="M124.61,-73.99C111.09,-64.94 94.25,-53.66 79.46,-43.75"/>
<polygon fill="black" stroke="black" points="81.29,-40.77 71.04,-38.11 77.4,-46.58 81.29,-40.77"/>
</g>
<!-- 12 -->
<g id="node3" class="node">
<title>12</title>
<polygon fill="none" stroke="black" points="194,-38 106,-38 106,0 194,0 194,-38"/>
<text text-anchor="middle" x="150" y="-22.8" font-family="Times,serif" font-size="14.00">12</text>
<text text-anchor="middle" x="150" y="-7.8" font-family="Times,serif" font-size="14.00">R: γ(T,∅,Λ)</text>
</g>
<!-- 10&#45;&gt;12 -->
<g id="edge2" class="edge">
<title>10&#45;&gt;12</title>
<path fill="none" stroke="black" d="M150,-73.81C150,-66.11 150,-56.82 150,-48.15"/>
<polygon fill="black" stroke="black" points="153.5,-48.02 150,-38.02 146.5,-48.02 153.5,-48.02"/>
</g>
<!-- 13 -->
<g id="node4" class="node">
<title>13</title>
<polygon fill="none" stroke="red" points="266,-38 212,-38 212,0 266,0 266,-38"/>
<text text-anchor="middle" x="239" y="-22.8" font-family="Times,serif" font-size="14.00">13</text>
<text text-anchor="middle" x="239" y="-7.8" font-family="Times,serif" font-size="14.00">R: Λ</text>
</g>
<!-- 10&#45;&gt;13 -->
<g id="edge3" class="edge">
<title>10&#45;&gt;13</title>
<path fill="none" stroke="black" d="M171.54,-73.81C182.58,-65.01 196.21,-54.14 208.32,-44.48"/>
<polygon fill="black" stroke="black" points="210.78,-46.99 216.41,-38.02 206.41,-41.52 210.78,-46.99"/>
</g>
</g>
</svg>
