<?xml version="1.0" encoding="UTF-8" standalone="no"?>
<!DOCTYPE svg PUBLIC "-//W3C//DTD SVG 1.1//EN"
 "http://www.w3.org/Graphics/SVG/1.1/DTD/svg11.dtd">
<!-- Generated by graphviz version 2.47.1 (0)
 -->
<!-- Pages: 1 -->
<svg width="496pt" height="266pt"
 viewBox="0.00 0.00 495.50 266.00" xmlns="http://www.w3.org/2000/svg" xmlns:xlink="http://www.w3.org/1999/xlink">
<g id="graph0" class="graph" transform="scale(1 1) rotate(0) translate(4 262)">
<polygon fill="white" stroke="transparent" points="-4,4 -4,-262 491.5,-262 491.5,4 -4,4"/>
<!-- 2 -->
<g id="node1" class="node">
<title>2</title>
<polygon fill="none" stroke="black" points="201.5,-258 147.5,-258 147.5,-222 201.5,-222 201.5,-258"/>
<text text-anchor="middle" x="174.5" y="-236.3" font-family="Times,serif" font-size="14.00">2</text>
</g>
<!-- 3 -->
<g id="node2" class="node">
<title>3</title>
<polygon fill="none" stroke="red" points="129,-186 0,-186 0,-148 129,-148 129,-186"/>
<text text-anchor="middle" x="64.5" y="-170.8" font-family="Times,serif" font-size="14.00">3</text>
<text text-anchor="middle" x="64.5" y="-155.8" font-family="Times,serif" font-size="14.00">R: γ(P,Λ,γ(Q,Λ,∅))</text>
</g>
<!-- 2&#45;&gt;3 -->
<g id="edge2" class="edge">
<title>2&#45;&gt;3</title>
<path fill="none" stroke="black" d="M148.15,-221.99C134.13,-212.94 116.65,-201.66 101.3,-191.75"/>
<polygon fill="black" stroke="black" points="102.86,-188.59 92.56,-186.11 99.06,-194.47 102.86,-188.59"/>
</g>
<!-- 6 -->
<g id="node5" class="node">
<title>6</title>
<polygon fill="none" stroke="red" points="201.5,-186 147.5,-186 147.5,-148 201.5,-148 201.5,-186"/>
<text text-anchor="middle" x="174.5" y="-170.8" font-family="Times,serif" font-size="14.00">6</text>
<text text-anchor="middle" x="174.5" y="-155.8" font-family="Times,serif" font-size="14.00">R: ...</text>
</g>
<!-- 2&#45;&gt;6 -->
<g id="edge3" class="edge">
<title>2&#45;&gt;6</title>
<path fill="none" stroke="black" d="M174.5,-221.81C174.5,-214.11 174.5,-204.82 174.5,-196.15"/>
<polygon fill="black" stroke="black" points="178,-196.02 174.5,-186.02 171,-196.02 178,-196.02"/>
</g>
<!-- 8 -->
<g id="node7" class="node">
<title>8</title>
<polygon fill="none" stroke="black" points="306.5,-186 220.5,-186 220.5,-148 306.5,-148 306.5,-186"/>
<text text-anchor="middle" x="263.5" y="-170.8" font-family="Times,serif" font-size="14.00">8</text>
<text text-anchor="middle" x="263.5" y="-155.8" font-family="Times,serif" font-size="14.00">R: γ(P,∅,Λ)</text>
</g>
<!-- 2&#45;&gt;8 -->
<g id="edge1" class="edge">
<title>2&#45;&gt;8</title>
<path fill="none" stroke="black" d="M196.04,-221.81C207.08,-213.01 220.71,-202.14 232.82,-192.48"/>
<polygon fill="black" stroke="black" points="235.28,-194.99 240.91,-186.02 230.91,-189.52 235.28,-194.99"/>
</g>
<!-- 4 -->
<g id="node3" class="node">
<title>4</title>
<polygon fill="none" stroke="black" points="109,-112 20,-112 20,-74 109,-74 109,-112"/>
<text text-anchor="middle" x="64.5" y="-96.8" font-family="Times,serif" font-size="14.00">4</text>
<text text-anchor="middle" x="64.5" y="-81.8" font-family="Times,serif" font-size="14.00">R: γ(R,Λ,∅)</text>
</g>
<!-- 3&#45;&gt;4 -->
<g id="edge4" class="edge">
<title>3&#45;&gt;4</title>
<path fill="none" stroke="black" d="M64.5,-147.83C64.5,-140.13 64.5,-130.97 64.5,-122.42"/>
<polygon fill="black" stroke="black" points="68,-122.41 64.5,-112.41 61,-122.41 68,-122.41"/>
</g>
<!-- 5 -->
<g id="node4" class="node">
<title>5</title>
<polygon fill="none" stroke="black" points="91.5,-38 37.5,-38 37.5,0 91.5,0 91.5,-38"/>
<text text-anchor="middle" x="64.5" y="-22.8" font-family="Times,serif" font-size="14.00">5</text>
<text text-anchor="middle" x="64.5" y="-7.8" font-family="Times,serif" font-size="14.00">R: Λ</text>
</g>
<!-- 4&#45;&gt;5 -->
<g id="edge5" class="edge">
<title>4&#45;&gt;5</title>
<path fill="none" stroke="black" d="M64.5,-73.83C64.5,-66.13 64.5,-56.97 64.5,-48.42"/>
<polygon fill="black" stroke="black" points="68,-48.41 64.5,-38.41 61,-48.41 68,-48.41"/>
</g>
<!-- 7 -->
<g id="node6" class="node">
<title>7</title>
<polygon fill="none" stroke="black" points="200.5,-112 146.5,-112 146.5,-74 200.5,-74 200.5,-112"/>
<text text-anchor="middle" x="173.5" y="-96.8" font-family="Times,serif" font-size="14.00">7</text>
<text text-anchor="middle" x="173.5" y="-81.8" font-family="Times,serif" font-size="14.00">R: Λ</text>
</g>
<!-- 6&#45;&gt;7 -->
<g id="edge6" class="edge">
<title>6&#45;&gt;7</title>
<path fill="none" stroke="black" d="M174.25,-147.83C174.14,-140.13 174.01,-130.97 173.89,-122.42"/>
<polygon fill="black" stroke="black" points="177.39,-122.36 173.76,-112.41 170.4,-122.46 177.39,-122.36"/>
</g>
<!-- 9 -->
<g id="node8" class="node">
<title>9</title>
<polygon fill="none" stroke="black" points="308.5,-112 218.5,-112 218.5,-74 308.5,-74 308.5,-112"/>
<text text-anchor="middle" x="263.5" y="-96.8" font-family="Times,serif" font-size="14.00">9</text>
<text text-anchor="middle" x="263.5" y="-81.8" font-family="Times,serif" font-size="14.00">R: γ(Q,Λ,∅)</text>
</g>
<!-- 8&#45;&gt;9 -->
<g id="edge7" class="edge">
<title>8&#45;&gt;9</title>
<path fill="none" stroke="black" d="M263.5,-147.83C263.5,-140.13 263.5,-130.97 263.5,-122.42"/>
<polygon fill="black" stroke="black" points="267,-122.41 263.5,-112.41 260,-122.41 267,-122.41"/>
</g>
<!-- 10 -->
<g id="node9" class="node">
<title>10</title>
<polygon fill="none" stroke="black" points="416.5,-112 326.5,-112 326.5,-74 416.5,-74 416.5,-112"/>
<text text-anchor="middle" x="371.5" y="-96.8" font-family="Times,serif" font-size="14.00">10</text>
<text text-anchor="middle" x="371.5" y="-81.8" font-family="Times,serif" font-size="14.00">R: γ(Q,∅,Λ)</text>
</g>
<!-- 8&#45;&gt;10 -->
<g id="edge8" class="edge">
<title>8&#45;&gt;10</title>
<path fill="none" stroke="black" d="M290.75,-147.83C304.44,-138.71 321.19,-127.54 335.88,-117.74"/>
<polygon fill="black" stroke="black" points="337.88,-120.62 344.26,-112.16 333.99,-114.8 337.88,-120.62"/>
</g>
<!-- 11 -->
<g id="node10" class="node">
<title>11</title>
<polygon fill="none" stroke="black" points="309.5,-38 221.5,-38 221.5,0 309.5,0 309.5,-38"/>
<text text-anchor="middle" x="265.5" y="-22.8" font-family="Times,serif" font-size="14.00">11</text>
<text text-anchor="middle" x="265.5" y="-7.8" font-family="Times,serif" font-size="14.00">R: γ(T,Λ,∅)</text>
</g>
<!-- 10&#45;&gt;11 -->
<g id="edge9" class="edge">
<title>10&#45;&gt;11</title>
<path fill="none" stroke="black" d="M344.75,-73.83C331.44,-64.79 315.18,-53.75 300.86,-44.02"/>
<polygon fill="black" stroke="black" points="302.48,-40.89 292.24,-38.16 298.55,-46.68 302.48,-40.89"/>
</g>
<!-- 12 -->
<g id="node11" class="node">
<title>12</title>
<polygon fill="none" stroke="black" points="415.5,-38 327.5,-38 327.5,0 415.5,0 415.5,-38"/>
<text text-anchor="middle" x="371.5" y="-22.8" font-family="Times,serif" font-size="14.00">12</text>
<text text-anchor="middle" x="371.5" y="-7.8" font-family="Times,serif" font-size="14.00">R: γ(T,∅,Λ)</text>
</g>
<!-- 10&#45;&gt;12 -->
<g id="edge10" class="edge">
<title>10&#45;&gt;12</title>
<path fill="none" stroke="black" d="M371.5,-73.83C371.5,-66.13 371.5,-56.97 371.5,-48.42"/>
<polygon fill="black" stroke="black" points="375,-48.41 371.5,-38.41 368,-48.41 375,-48.41"/>
</g>
<!-- 13 -->
<g id="node12" class="node">
<title>13</title>
<polygon fill="none" stroke="red" points="487.5,-38 433.5,-38 433.5,0 487.5,0 487.5,-38"/>
<text text-anchor="middle" x="460.5" y="-22.8" font-family="Times,serif" font-size="14.00">13</text>
<text text-anchor="middle" x="460.5" y="-7.8" font-family="Times,serif" font-size="14.00">R: Λ</text>
</g>
<!-- 10&#45;&gt;13 -->
<g id="edge11" class="edge">
<title>10&#45;&gt;13</title>
<path fill="none" stroke="black" d="M393.96,-73.83C404.92,-64.96 418.27,-54.16 430.13,-44.57"/>
<polygon fill="black" stroke="black" points="432.48,-47.17 438.05,-38.16 428.07,-41.73 432.48,-47.17"/>
</g>
</g>
</svg>
