<?xml version="1.0" encoding="UTF-8" standalone="no"?>
<!DOCTYPE svg PUBLIC "-//W3C//DTD SVG 1.1//EN"
 "http://www.w3.org/Graphics/SVG/1.1/DTD/svg11.dtd">
<!-- Generated by graphviz version 2.47.1 (0)
 -->
<!-- Pages: 1 -->
<svg width="190pt" height="548pt"
 viewBox="0.00 0.00 190.00 548.00" xmlns="http://www.w3.org/2000/svg" xmlns:xlink="http://www.w3.org/1999/xlink">
<g id="graph0" class="graph" transform="scale(1 1) rotate(0) translate(4 544)">
<polygon fill="white" stroke="transparent" points="-4,4 -4,-544 186,-544 186,4 -4,4"/>
<!-- entry -->
<g id="node1" class="node">
<title>entry</title>
<polygon fill="none" stroke="black" points="90,-540 36,-540 36,-504 90,-504 90,-540"/>
<text text-anchor="middle" x="63" y="-518.3" font-family="Times,serif" font-size="14.00">entry</text>
</g>
<!-- exit -->
<g id="node2" class="node">
<title>exit</title>
<polygon fill="none" stroke="black" points="72,-36 18,-36 18,0 72,0 72,-36"/>
<text text-anchor="middle" x="45" y="-14.3" font-family="Times,serif" font-size="14.00">exit</text>
</g>
<!-- entry&#45;&gt;exit -->
<g id="edge1" class="edge">
<title>entry&#45;&gt;exit</title>
<path fill="none" stroke="black" d="M49.64,-503.72C31.15,-478.03 0,-427.55 0,-379 0,-379 0,-379 0,-161 0,-119.13 18,-73.42 31.23,-45.48"/>
<polygon fill="black" stroke="black" points="34.44,-46.89 35.68,-36.37 28.15,-43.82 34.44,-46.89"/>
</g>
<!-- 1 -->
<g id="node3" class="node">
<title>1</title>
<polygon fill="none" stroke="black" points="122,-468 68,-468 68,-432 122,-432 122,-468"/>
<text text-anchor="middle" x="95" y="-446.3" font-family="Times,serif" font-size="14.00">1</text>
</g>
<!-- entry&#45;&gt;1 -->
<g id="edge2" class="edge">
<title>entry&#45;&gt;1</title>
<path fill="none" stroke="black" d="M70.91,-503.7C74.55,-495.73 78.95,-486.1 82.99,-477.26"/>
<polygon fill="black" stroke="black" points="86.21,-478.65 87.18,-468.1 79.84,-475.74 86.21,-478.65"/>
</g>
<!-- 2 -->
<g id="node4" class="node">
<title>2</title>
<polygon fill="none" stroke="black" points="122,-396 68,-396 68,-360 122,-360 122,-396"/>
<text text-anchor="middle" x="95" y="-374.3" font-family="Times,serif" font-size="14.00">2</text>
</g>
<!-- 1&#45;&gt;2 -->
<g id="edge3" class="edge">
<title>1&#45;&gt;2</title>
<path fill="none" stroke="black" d="M95,-431.7C95,-423.98 95,-414.71 95,-406.11"/>
<polygon fill="black" stroke="black" points="98.5,-406.1 95,-396.1 91.5,-406.1 98.5,-406.1"/>
</g>
<!-- 7 -->
<g id="node8" class="node">
<title>7</title>
<polygon fill="none" stroke="black" points="118,-108 64,-108 64,-72 118,-72 118,-108"/>
<text text-anchor="middle" x="91" y="-86.3" font-family="Times,serif" font-size="14.00">7</text>
</g>
<!-- 1&#45;&gt;7 -->
<g id="edge10" class="edge">
<title>1&#45;&gt;7</title>
<path fill="none" stroke="black" d="M114.31,-431.82C139.94,-407.01 182,-358.46 182,-307 182,-307 182,-307 182,-233 182,-185.83 145.96,-141.79 119.25,-115.63"/>
<polygon fill="black" stroke="black" points="121.31,-112.76 111.65,-108.42 116.49,-117.84 121.31,-112.76"/>
</g>
<!-- 3 -->
<g id="node5" class="node">
<title>3</title>
<polygon fill="none" stroke="black" points="122,-324 68,-324 68,-288 122,-288 122,-324"/>
<text text-anchor="middle" x="95" y="-302.3" font-family="Times,serif" font-size="14.00">3</text>
</g>
<!-- 2&#45;&gt;3 -->
<g id="edge4" class="edge">
<title>2&#45;&gt;3</title>
<path fill="none" stroke="black" d="M95,-359.7C95,-351.98 95,-342.71 95,-334.11"/>
<polygon fill="black" stroke="black" points="98.5,-334.1 95,-324.1 91.5,-334.1 98.5,-334.1"/>
</g>
<!-- 4 -->
<g id="node6" class="node">
<title>4</title>
<polygon fill="none" stroke="black" points="82,-252 28,-252 28,-216 82,-216 82,-252"/>
<text text-anchor="middle" x="55" y="-230.3" font-family="Times,serif" font-size="14.00">4</text>
</g>
<!-- 3&#45;&gt;4 -->
<g id="edge5" class="edge">
<title>3&#45;&gt;4</title>
<path fill="none" stroke="black" d="M85.11,-287.7C80.51,-279.64 74.94,-269.89 69.85,-260.98"/>
<polygon fill="black" stroke="black" points="72.77,-259.05 64.77,-252.1 66.7,-262.52 72.77,-259.05"/>
</g>
<!-- 5 -->
<g id="node9" class="node">
<title>5</title>
<polygon fill="none" stroke="black" points="154,-252 100,-252 100,-216 154,-216 154,-252"/>
<text text-anchor="middle" x="127" y="-230.3" font-family="Times,serif" font-size="14.00">5</text>
</g>
<!-- 3&#45;&gt;5 -->
<g id="edge8" class="edge">
<title>3&#45;&gt;5</title>
<path fill="none" stroke="black" d="M102.91,-287.7C106.55,-279.73 110.95,-270.1 114.99,-261.26"/>
<polygon fill="black" stroke="black" points="118.21,-262.65 119.18,-252.1 111.84,-259.74 118.21,-262.65"/>
</g>
<!-- 6 -->
<g id="node7" class="node">
<title>6</title>
<polygon fill="none" stroke="black" points="118,-180 64,-180 64,-144 118,-144 118,-180"/>
<text text-anchor="middle" x="91" y="-158.3" font-family="Times,serif" font-size="14.00">6</text>
</g>
<!-- 4&#45;&gt;6 -->
<g id="edge6" class="edge">
<title>4&#45;&gt;6</title>
<path fill="none" stroke="black" d="M63.9,-215.7C68,-207.73 72.95,-198.1 77.49,-189.26"/>
<polygon fill="black" stroke="black" points="80.74,-190.6 82.2,-180.1 74.52,-187.4 80.74,-190.6"/>
</g>
<!-- 6&#45;&gt;7 -->
<g id="edge7" class="edge">
<title>6&#45;&gt;7</title>
<path fill="none" stroke="black" d="M91,-143.7C91,-135.98 91,-126.71 91,-118.11"/>
<polygon fill="black" stroke="black" points="94.5,-118.1 91,-108.1 87.5,-118.1 94.5,-118.1"/>
</g>
<!-- 7&#45;&gt;exit -->
<g id="edge11" class="edge">
<title>7&#45;&gt;exit</title>
<path fill="none" stroke="black" d="M79.63,-71.7C74.28,-63.56 67.8,-53.69 61.89,-44.7"/>
<polygon fill="black" stroke="black" points="64.66,-42.54 56.24,-36.1 58.81,-46.38 64.66,-42.54"/>
</g>
<!-- 5&#45;&gt;6 -->
<g id="edge9" class="edge">
<title>5&#45;&gt;6</title>
<path fill="none" stroke="black" d="M118.1,-215.7C114,-207.73 109.05,-198.1 104.51,-189.26"/>
<polygon fill="black" stroke="black" points="107.48,-187.4 99.8,-180.1 101.26,-190.6 107.48,-187.4"/>
</g>
</g>
</svg>
