<?xml version="1.0" encoding="UTF-8" standalone="no"?>
<!DOCTYPE svg PUBLIC "-//W3C//DTD SVG 1.1//EN"
 "http://www.w3.org/Graphics/SVG/1.1/DTD/svg11.dtd">
<!-- Generated by graphviz version 2.47.1 (0)
 -->
<!-- Pages: 1 -->
<svg width="304pt" height="332pt"
 viewBox="0.00 0.00 304.00 332.00" xmlns="http://www.w3.org/2000/svg" xmlns:xlink="http://www.w3.org/1999/xlink">
<g id="graph0" class="graph" transform="scale(1 1) rotate(0) translate(4 328)">
<polygon fill="white" stroke="transparent" points="-4,4 -4,-328 300,-328 300,4 -4,4"/>
<!-- entry -->
<g id="node1" class="node">
<title>entry</title>
<ellipse fill="none" stroke="black" cx="141" cy="-306" rx="28.7" ry="18"/>
<text text-anchor="middle" x="141" y="-302.3" font-family="Times,serif" font-size="14.00">entry</text>
</g>
<!-- idom_v -->
<g id="node2" class="node">
<title>idom_v</title>
<ellipse fill="none" stroke="black" cx="141" cy="-234" rx="39.79" ry="18"/>
<text text-anchor="middle" x="141" y="-230.3" font-family="Times,serif" font-size="14.00">idom(v)</text>
</g>
<!-- entry&#45;&gt;idom_v -->
<g id="edge1" class="edge">
<title>entry&#45;&gt;idom_v</title>
<path fill="none" stroke="black" d="M141,-287.7C141,-279.98 141,-270.71 141,-262.11"/>
<polygon fill="black" stroke="black" points="144.5,-262.1 141,-252.1 137.5,-262.1 144.5,-262.1"/>
</g>
<!-- X -->
<g id="node3" class="node">
<title>X</title>
<ellipse fill="none" stroke="black" cx="27" cy="-162" rx="27" ry="18"/>
<text text-anchor="middle" x="27" y="-158.3" font-family="Times,serif" font-size="14.00">X</text>
</g>
<!-- idom_v&#45;&gt;X -->
<g id="edge2" class="edge">
<title>idom_v&#45;&gt;X</title>
<path fill="none" stroke="black" d="M118.48,-219.17C100.33,-208.03 74.71,-192.29 55.2,-180.31"/>
<polygon fill="black" stroke="black" points="56.79,-177.19 46.44,-174.94 53.13,-183.15 56.79,-177.19"/>
</g>
<!-- a -->
<g id="node4" class="node">
<title>a</title>
<ellipse fill="none" stroke="black" cx="99" cy="-162" rx="27" ry="18"/>
<text text-anchor="middle" x="99" y="-158.3" font-family="Times,serif" font-size="14.00" fill="gray">a</text>
</g>
<!-- idom_v&#45;&gt;a -->
<g id="edge3" class="edge">
<title>idom_v&#45;&gt;a</title>
<path fill="none" stroke="black" d="M131.05,-216.41C125.9,-207.83 119.51,-197.19 113.8,-187.67"/>
<polygon fill="black" stroke="black" points="116.74,-185.76 108.59,-178.99 110.74,-189.36 116.74,-185.76"/>
</g>
<!-- idom_u -->
<g id="node5" class="node">
<title>idom_u</title>
<ellipse fill="none" stroke="black" cx="184" cy="-162" rx="39.79" ry="18"/>
<text text-anchor="middle" x="184" y="-158.3" font-family="Times,serif" font-size="14.00">idom(u)</text>
</g>
<!-- idom_v&#45;&gt;idom_u -->
<g id="edge4" class="edge">
<title>idom_v&#45;&gt;idom_u</title>
<path fill="none" stroke="black" d="M151.19,-216.41C156.38,-207.95 162.81,-197.49 168.59,-188.08"/>
<polygon fill="black" stroke="black" points="171.63,-189.82 173.88,-179.47 165.67,-186.16 171.63,-189.82"/>
</g>
<!-- v -->
<g id="node10" class="node">
<title>v</title>
<ellipse fill="none" stroke="black" cx="269" cy="-162" rx="27" ry="18"/>
<text text-anchor="middle" x="269" y="-158.3" font-family="Times,serif" font-size="14.00">v</text>
</g>
<!-- idom_v&#45;&gt;v -->
<g id="edge9" class="edge">
<title>idom_v&#45;&gt;v</title>
<path fill="none" stroke="black" d="M165.38,-219.67C186.54,-208.09 217.24,-191.31 239.73,-179.01"/>
<polygon fill="black" stroke="black" points="241.42,-182.07 248.51,-174.2 238.06,-175.93 241.42,-182.07"/>
</g>
<!-- b -->
<g id="node6" class="node">
<title>b</title>
<ellipse fill="none" stroke="black" cx="112" cy="-90" rx="27" ry="18"/>
<text text-anchor="middle" x="112" y="-86.3" font-family="Times,serif" font-size="14.00" fill="gray">b</text>
</g>
<!-- idom_u&#45;&gt;b -->
<g id="edge5" class="edge">
<title>idom_u&#45;&gt;b</title>
<path fill="none" stroke="black" d="M168.02,-145.46C158.06,-135.78 145.09,-123.17 134.15,-112.53"/>
<polygon fill="black" stroke="black" points="136.56,-110 126.95,-105.54 131.68,-115.02 136.56,-110"/>
</g>
<!-- c -->
<g id="node7" class="node">
<title>c</title>
<ellipse fill="none" stroke="black" cx="184" cy="-90" rx="27" ry="18"/>
<text text-anchor="middle" x="184" y="-86.3" font-family="Times,serif" font-size="14.00" fill="gray">c</text>
</g>
<!-- idom_u&#45;&gt;c -->
<g id="edge6" class="edge">
<title>idom_u&#45;&gt;c</title>
<path fill="none" stroke="black" d="M184,-143.7C184,-135.98 184,-126.71 184,-118.11"/>
<polygon fill="black" stroke="black" points="187.5,-118.1 184,-108.1 180.5,-118.1 187.5,-118.1"/>
</g>
<!-- u -->
<g id="node8" class="node">
<title>u</title>
<ellipse fill="none" stroke="black" cx="256" cy="-90" rx="27" ry="18"/>
<text text-anchor="middle" x="256" y="-86.3" font-family="Times,serif" font-size="14.00">u</text>
</g>
<!-- idom_u&#45;&gt;u -->
<g id="edge7" class="edge">
<title>idom_u&#45;&gt;u</title>
<path fill="none" stroke="black" d="M199.98,-145.46C209.94,-135.78 222.91,-123.17 233.85,-112.53"/>
<polygon fill="black" stroke="black" points="236.32,-115.02 241.05,-105.54 231.44,-110 236.32,-115.02"/>
</g>
<!-- w -->
<g id="node9" class="node">
<title>w</title>
<ellipse fill="none" stroke="black" cx="256" cy="-18" rx="27" ry="18"/>
<text text-anchor="middle" x="256" y="-14.3" font-family="Times,serif" font-size="14.00">w</text>
</g>
<!-- u&#45;&gt;w -->
<g id="edge8" class="edge">
<title>u&#45;&gt;w</title>
<path fill="none" stroke="black" d="M256,-71.7C256,-63.98 256,-54.71 256,-46.11"/>
<polygon fill="black" stroke="black" points="259.5,-46.1 256,-36.1 252.5,-46.1 259.5,-46.1"/>
</g>
</g>
</svg>
