<?xml version="1.0" encoding="UTF-8" standalone="no"?>
<!DOCTYPE svg PUBLIC "-//W3C//DTD SVG 1.1//EN"
 "http://www.w3.org/Graphics/SVG/1.1/DTD/svg11.dtd">
<!-- Generated by graphviz version 2.49.0 (0)
 -->
<!-- Pages: 1 -->
<svg width="343pt" height="611pt"
 viewBox="0.00 0.00 343.00 611.00" xmlns="http://www.w3.org/2000/svg" xmlns:xlink="http://www.w3.org/1999/xlink">
<g id="graph0" class="graph" transform="scale(1 1) rotate(0) translate(4 607)">
<polygon fill="white" stroke="transparent" points="-4,4 -4,-607 339,-607 339,4 -4,4"/>
<!-- 0 -->
<g id="node1" class="node">
<title>0</title>
<polygon fill="#00ff00" fill-opacity="0.031373" stroke="black" points="268.5,-603 214.5,-603 214.5,-567 268.5,-567 268.5,-603"/>
<text text-anchor="start" x="225" y="-582.2" font-family="Times,serif" font-size="11.00" fill="gray">node: 0</text>
</g>
<!-- 1 -->
<g id="node2" class="node">
<title>1</title>
<polygon fill="none" stroke="black" points="274.5,-519 208.5,-519 208.5,-472 274.5,-472 274.5,-519"/>
<text text-anchor="start" x="225" y="-507.2" font-family="Times,serif" font-size="11.00" fill="gray">node: 1</text>
<text text-anchor="start" x="216.5" y="-493.8" font-family="Times,serif" font-size="14.00" fill="purple">A</text>
<text text-anchor="start" x="226.5" y="-493.8" font-family="Times,serif" font-size="14.00"> = </text>
<text text-anchor="start" x="242.5" y="-493.8" font-family="Times,serif" font-size="14.00" fill="purple">read</text>
<text text-anchor="start" x="216.5" y="-479.8" font-family="Times,serif" font-size="14.00" fill="blue">if</text>
<text text-anchor="start" x="225.5" y="-479.8" font-family="Times,serif" font-size="14.00"> </text>
<text text-anchor="start" x="229.5" y="-479.8" font-family="Times,serif" font-size="14.00" fill="purple">P</text>
</g>
<!-- 0&#45;&gt;1 -->
<g id="edge1" class="edge">
<title>0&#45;&gt;1</title>
<path fill="none" stroke="#000000" stroke-opacity="0.564706" d="M241.5,-566.71C241.5,-556.05 241.5,-542.03 241.5,-529.33"/>
<polygon fill="#000000" fill-opacity="0.564706" stroke="#000000" stroke-opacity="0.564706" points="245,-529.06 241.5,-519.06 238,-529.06 245,-529.06"/>
<text text-anchor="start" x="241.5" y="-540.2" font-family="Times,serif" font-size="11.00" fill="gray">edge: 0</text>
</g>
<!-- 4 -->
<g id="node3" class="node">
<title>4</title>
<polygon fill="none" stroke="black" points="238.5,-411 184.5,-411 184.5,-375 238.5,-375 238.5,-411"/>
<text text-anchor="start" x="195" y="-397.7" font-family="Times,serif" font-size="11.00" fill="gray">node: 4</text>
<text text-anchor="start" x="195" y="-384.3" font-family="Times,serif" font-size="14.00" fill="blue">if</text>
<text text-anchor="start" x="204" y="-384.3" font-family="Times,serif" font-size="14.00"> </text>
<text text-anchor="start" x="208" y="-384.3" font-family="Times,serif" font-size="14.00" fill="purple">Q</text>
</g>
<!-- 1&#45;&gt;4 -->
<g id="edge12" class="edge">
<title>1&#45;&gt;4</title>
<path fill="none" stroke="#800000" stroke-opacity="0.564706" d="M228.14,-471.94C225.24,-466.24 222.45,-460.03 220.5,-454 217.12,-443.59 215.01,-431.75 213.68,-421.35"/>
<polygon fill="#800000" fill-opacity="0.564706" stroke="#800000" stroke-opacity="0.564706" points="217.13,-420.71 212.57,-411.15 210.17,-421.47 217.13,-420.71"/>
<text text-anchor="start" x="220.5" y="-446.2" font-family="Times,serif" font-size="11.00" fill="gray">edge: 18</text>
<text text-anchor="start" x="226.5" y="-432.8" font-family="Times,serif" font-size="14.00" fill="#800000" fill-opacity="0.564706">false</text>
</g>
<!-- 5 -->
<g id="node4" class="node">
<title>5</title>
<polygon fill="none" stroke="black" points="291.5,-217 237.5,-217 237.5,-181 291.5,-181 291.5,-217"/>
<text text-anchor="start" x="248" y="-203.7" font-family="Times,serif" font-size="11.00" fill="gray">node: 5</text>
<text text-anchor="start" x="248" y="-190.3" font-family="Times,serif" font-size="14.00" fill="blue">if</text>
<text text-anchor="start" x="257" y="-190.3" font-family="Times,serif" font-size="14.00"> </text>
<text text-anchor="start" x="261" y="-190.3" font-family="Times,serif" font-size="14.00" fill="purple">R</text>
</g>
<!-- 1&#45;&gt;5 -->
<g id="edge11" class="edge">
<title>1&#45;&gt;5</title>
<path fill="none" stroke="#008000" stroke-opacity="0.564706" d="M252.75,-471.85C255.09,-466.16 257.23,-459.97 258.5,-454 275.82,-372.96 270.95,-274.08 267.13,-227.18"/>
<polygon fill="#008000" fill-opacity="0.564706" stroke="#008000" stroke-opacity="0.564706" points="270.62,-226.86 266.27,-217.2 263.64,-227.46 270.62,-226.86"/>
<text text-anchor="start" x="271.5" y="-349.2" font-family="Times,serif" font-size="11.00" fill="gray">edge: 17</text>
<text text-anchor="start" x="279.5" y="-335.8" font-family="Times,serif" font-size="14.00" fill="#008000" fill-opacity="0.564706">true</text>
</g>
<!-- 6 -->
<g id="node5" class="node">
<title>6</title>
<polygon fill="none" stroke="black" points="244.5,-314 190.5,-314 190.5,-278 244.5,-278 244.5,-314"/>
<text text-anchor="start" x="201" y="-300.7" font-family="Times,serif" font-size="11.00" fill="gray">node: 6</text>
<text text-anchor="start" x="201" y="-287.3" font-family="Times,serif" font-size="14.00" fill="purple">A</text>
<text text-anchor="start" x="211" y="-287.3" font-family="Times,serif" font-size="14.00"> = </text>
<text text-anchor="start" x="227" y="-287.3" font-family="Times,serif" font-size="14.00" fill="purple">5</text>
</g>
<!-- 4&#45;&gt;6 -->
<g id="edge9" class="edge">
<title>4&#45;&gt;6</title>
<path fill="none" stroke="#008000" stroke-opacity="0.564706" d="M211.22,-374.9C211.16,-362.88 211.35,-346.44 212.5,-332 212.7,-329.43 212.98,-326.76 213.29,-324.1"/>
<polygon fill="#008000" fill-opacity="0.564706" stroke="#008000" stroke-opacity="0.564706" points="216.78,-324.42 214.63,-314.04 209.84,-323.49 216.78,-324.42"/>
<text text-anchor="start" x="212.5" y="-349.2" font-family="Times,serif" font-size="11.00" fill="gray">edge: 14</text>
<text text-anchor="start" x="220.5" y="-335.8" font-family="Times,serif" font-size="14.00" fill="#008000" fill-opacity="0.564706">true</text>
</g>
<!-- 8 -->
<g id="node6" class="node">
<title>8</title>
<polygon fill="none" stroke="black" points="172.5,-314 118.5,-314 118.5,-278 172.5,-278 172.5,-314"/>
<text text-anchor="start" x="129" y="-300.7" font-family="Times,serif" font-size="11.00" fill="gray">node: 8</text>
<text text-anchor="start" x="129" y="-287.3" font-family="Times,serif" font-size="14.00" fill="blue">if</text>
<text text-anchor="start" x="138" y="-287.3" font-family="Times,serif" font-size="14.00"> </text>
<text text-anchor="start" x="142" y="-287.3" font-family="Times,serif" font-size="14.00" fill="purple">T</text>
</g>
<!-- 4&#45;&gt;8 -->
<g id="edge10" class="edge">
<title>4&#45;&gt;8</title>
<path fill="none" stroke="#800000" stroke-opacity="0.564706" d="M186.88,-374.93C180.61,-369.72 174.3,-363.6 169.5,-357 162.28,-347.06 156.85,-334.65 152.99,-323.7"/>
<polygon fill="#800000" fill-opacity="0.564706" stroke="#800000" stroke-opacity="0.564706" points="156.31,-322.59 149.89,-314.16 149.65,-324.76 156.31,-322.59"/>
<text text-anchor="start" x="169.5" y="-349.2" font-family="Times,serif" font-size="11.00" fill="gray">edge: 15</text>
<text text-anchor="start" x="175.5" y="-335.8" font-family="Times,serif" font-size="14.00" fill="#800000" fill-opacity="0.564706">false</text>
</g>
<!-- 9 -->
<g id="node7" class="node">
<title>9</title>
<polygon fill="none" stroke="black" points="335,-120 250,-120 250,-84 335,-84 335,-120"/>
<text text-anchor="start" x="276" y="-106.7" font-family="Times,serif" font-size="11.00" fill="gray">node: 9</text>
<text text-anchor="start" x="258" y="-93.3" font-family="Times,serif" font-size="14.00" fill="purple">A</text>
<text text-anchor="start" x="268" y="-93.3" font-family="Times,serif" font-size="14.00"> = </text>
<text text-anchor="start" x="284" y="-93.3" font-family="Times,serif" font-size="14.00" fill="purple">A 1 add</text>
</g>
<!-- 5&#45;&gt;9 -->
<g id="edge3" class="edge">
<title>5&#45;&gt;9</title>
<path fill="none" stroke="#008000" stroke-opacity="0.564706" d="M261.98,-180.95C260.83,-168.66 260.64,-151.86 265.5,-138 266.62,-134.81 268.15,-131.69 269.91,-128.7"/>
<polygon fill="#008000" fill-opacity="0.564706" stroke="#008000" stroke-opacity="0.564706" points="272.98,-130.42 275.76,-120.2 267.21,-126.45 272.98,-130.42"/>
<text text-anchor="start" x="265.5" y="-155.2" font-family="Times,serif" font-size="11.00" fill="gray">edge: 5</text>
<text text-anchor="start" x="271" y="-141.8" font-family="Times,serif" font-size="14.00" fill="#008000" fill-opacity="0.564706">true</text>
</g>
<!-- 16 -->
<g id="node10" class="node">
<title>16</title>
<polygon fill="none" stroke="black" points="182.5,-120 112.5,-120 112.5,-84 182.5,-84 182.5,-120"/>
<text text-anchor="start" x="128.5" y="-106.7" font-family="Times,serif" font-size="11.00" fill="gray">node: 16</text>
<text text-anchor="start" x="120.5" y="-93.3" font-family="Times,serif" font-size="14.00" fill="purple">write</text>
<text text-anchor="start" x="148.5" y="-93.3" font-family="Times,serif" font-size="14.00"> = </text>
<text text-anchor="start" x="164.5" y="-93.3" font-family="Times,serif" font-size="14.00" fill="purple">A</text>
</g>
<!-- 5&#45;&gt;16 -->
<g id="edge4" class="edge">
<title>5&#45;&gt;16</title>
<path fill="none" stroke="#800000" stroke-opacity="0.564706" d="M243.31,-180.8C224.59,-165.6 197.13,-143.29 176.39,-126.46"/>
<polygon fill="#800000" fill-opacity="0.564706" stroke="#800000" stroke-opacity="0.564706" points="178.5,-123.66 168.53,-120.08 174.09,-129.1 178.5,-123.66"/>
<text text-anchor="start" x="220.5" y="-155.2" font-family="Times,serif" font-size="11.00" fill="gray">edge: 6</text>
<text text-anchor="start" x="224" y="-141.8" font-family="Times,serif" font-size="14.00" fill="#800000" fill-opacity="0.564706">false</text>
</g>
<!-- 6&#45;&gt;5 -->
<g id="edge6" class="edge">
<title>6&#45;&gt;5</title>
<path fill="none" stroke="#000000" stroke-opacity="0.564706" d="M216.7,-277.75C216.83,-265.21 218.53,-248.19 225.5,-235 227.51,-231.2 230.1,-227.61 233,-224.28"/>
<polygon fill="#000000" fill-opacity="0.564706" stroke="#000000" stroke-opacity="0.564706" points="235.64,-226.59 240.18,-217.02 230.66,-221.67 235.64,-226.59"/>
<text text-anchor="start" x="225.5" y="-244.7" font-family="Times,serif" font-size="11.00" fill="gray">edge: 9</text>
</g>
<!-- 13 -->
<g id="node8" class="node">
<title>13</title>
<polygon fill="none" stroke="black" points="215.5,-217 103.5,-217 103.5,-181 215.5,-181 215.5,-217"/>
<text text-anchor="start" x="140.5" y="-203.7" font-family="Times,serif" font-size="11.00" fill="gray">node: 13</text>
<text text-anchor="start" x="111.5" y="-190.3" font-family="Times,serif" font-size="14.00" fill="purple">A</text>
<text text-anchor="start" x="121.5" y="-190.3" font-family="Times,serif" font-size="14.00"> = </text>
<text text-anchor="start" x="137.5" y="-190.3" font-family="Times,serif" font-size="14.00" fill="purple">A 3 multiply</text>
</g>
<!-- 8&#45;&gt;13 -->
<g id="edge13" class="edge">
<title>8&#45;&gt;13</title>
<path fill="none" stroke="#008000" stroke-opacity="0.564706" d="M148.07,-277.58C150.14,-263.51 153.09,-243.48 155.48,-227.29"/>
<polygon fill="#008000" fill-opacity="0.564706" stroke="#008000" stroke-opacity="0.564706" points="158.95,-227.72 156.95,-217.31 152.03,-226.7 158.95,-227.72"/>
<text text-anchor="start" x="154.5" y="-252.2" font-family="Times,serif" font-size="11.00" fill="gray">edge: 19</text>
<text text-anchor="start" x="162.5" y="-238.8" font-family="Times,serif" font-size="14.00" fill="#008000" fill-opacity="0.564706">true</text>
</g>
<!-- 15 -->
<g id="node9" class="node">
<title>15</title>
<polygon fill="none" stroke="black" points="85,-217 0,-217 0,-181 85,-181 85,-217"/>
<text text-anchor="start" x="23.5" y="-203.7" font-family="Times,serif" font-size="11.00" fill="gray">node: 15</text>
<text text-anchor="start" x="8" y="-190.3" font-family="Times,serif" font-size="14.00" fill="purple">A</text>
<text text-anchor="start" x="18" y="-190.3" font-family="Times,serif" font-size="14.00"> = </text>
<text text-anchor="start" x="34" y="-190.3" font-family="Times,serif" font-size="14.00" fill="purple">A 6 add</text>
</g>
<!-- 8&#45;&gt;15 -->
<g id="edge14" class="edge">
<title>8&#45;&gt;15</title>
<path fill="none" stroke="#800000" stroke-opacity="0.564706" d="M126.61,-277.58C110.35,-262.58 86.72,-240.78 68.64,-224.11"/>
<polygon fill="#800000" fill-opacity="0.564706" stroke="#800000" stroke-opacity="0.564706" points="71,-221.52 61.27,-217.31 66.25,-226.67 71,-221.52"/>
<text text-anchor="start" x="106.5" y="-252.2" font-family="Times,serif" font-size="11.00" fill="gray">edge: 20</text>
<text text-anchor="start" x="112.5" y="-238.8" font-family="Times,serif" font-size="14.00" fill="#800000" fill-opacity="0.564706">false</text>
</g>
<!-- 9&#45;&gt;5 -->
<g id="edge5" class="edge">
<title>9&#45;&gt;5</title>
<path fill="none" stroke="#000000" stroke-opacity="0.564706" d="M298.4,-120.17C301.67,-132.51 304.05,-149.32 298.5,-163 297.08,-166.5 295.12,-169.85 292.85,-172.98"/>
<polygon fill="#000000" fill-opacity="0.564706" stroke="#000000" stroke-opacity="0.564706" points="290.07,-170.86 286.3,-180.76 295.42,-175.37 290.07,-170.86"/>
<text text-anchor="start" x="301.5" y="-147.7" font-family="Times,serif" font-size="11.00" fill="gray">edge: 7</text>
</g>
<!-- 13&#45;&gt;16 -->
<g id="edge8" class="edge">
<title>13&#45;&gt;16</title>
<path fill="none" stroke="#000000" stroke-opacity="0.564706" d="M153.01,-180.79C151.19,-175.2 149.46,-168.91 148.5,-163 146.78,-152.39 146.29,-140.59 146.31,-130.28"/>
<polygon fill="#000000" fill-opacity="0.564706" stroke="#000000" stroke-opacity="0.564706" points="149.81,-130.25 146.48,-120.18 142.81,-130.12 149.81,-130.25"/>
<text text-anchor="start" x="148.5" y="-147.7" font-family="Times,serif" font-size="11.00" fill="gray">edge: 13</text>
</g>
<!-- 15&#45;&gt;16 -->
<g id="edge7" class="edge">
<title>15&#45;&gt;16</title>
<path fill="none" stroke="#000000" stroke-opacity="0.564706" d="M59.49,-180.78C71.75,-168.56 88.82,-151.92 104.5,-138 108.73,-134.25 113.28,-130.37 117.79,-126.63"/>
<polygon fill="#000000" fill-opacity="0.564706" stroke="#000000" stroke-opacity="0.564706" points="120.25,-129.14 125.76,-120.09 115.81,-123.72 120.25,-129.14"/>
<text text-anchor="start" x="104.5" y="-147.7" font-family="Times,serif" font-size="11.00" fill="gray">edge: 10</text>
</g>
<!-- 17 -->
<g id="node11" class="node">
<title>17</title>
<polygon fill="#ff0000" fill-opacity="0.031373" stroke="black" points="174.5,-36 120.5,-36 120.5,0 174.5,0 174.5,-36"/>
<text text-anchor="start" x="128.5" y="-15.2" font-family="Times,serif" font-size="11.00" fill="gray">node: 17</text>
</g>
<!-- 16&#45;&gt;17 -->
<g id="edge2" class="edge">
<title>16&#45;&gt;17</title>
<path fill="none" stroke="#000000" stroke-opacity="0.564706" d="M147.5,-83.61C147.5,-72.77 147.5,-58.6 147.5,-46.29"/>
<polygon fill="#000000" fill-opacity="0.564706" stroke="#000000" stroke-opacity="0.564706" points="151,-46.08 147.5,-36.08 144,-46.08 151,-46.08"/>
<text text-anchor="start" x="147.5" y="-57.2" font-family="Times,serif" font-size="11.00" fill="gray">edge: 1</text>
</g>
</g>
</svg>
